<svg width="32" height="32" viewBox="0 0 32 32" fill="none" xmlns="http://www.w3.org/2000/svg">
<path fill-rule="evenodd" clip-rule="evenodd" d="M14.555 18.0957C13.6793 18.4882 12.7084 18.7066 11.6866 18.7066C7.8096 18.7066 4.66667 15.5636 4.66667 11.6866C4.66667 7.8096 7.8096 4.66667 11.6866 4.66667C15.5636 4.66667 18.7066 7.8096 18.7066 11.6866C18.7066 12.708 18.4884 13.6785 18.0962 14.554L14.555 18.0957ZM13.4905 19.1604C12.912 19.2995 12.3079 19.3732 11.6866 19.3732C7.44141 19.3732 4 15.9318 4 11.6866C4 7.44141 7.44141 4 11.6866 4C15.9318 4 19.3732 7.44141 19.3732 11.6866C19.3732 12.3074 19.2996 12.9111 19.1607 13.4893L20.0915 12.5583C20.1134 12.5364 20.1365 12.5163 20.1606 12.498C20.4225 12.2837 20.8093 12.2987 21.0536 12.5431L24.5415 16.031V14.3709C24.5415 14.0027 24.84 13.7043 25.2082 13.7043C25.5764 13.7043 25.8748 14.0027 25.8748 14.3709V17.3643L27.8251 19.3145C28.0855 19.5749 28.0855 19.997 27.8251 20.2574C27.5648 20.5177 27.1427 20.5177 26.8823 20.2574L20.5802 13.9553L14.2792 20.2573C14.0189 20.5177 13.5968 20.5177 13.3364 20.2574C13.076 19.9971 13.076 19.575 13.3363 19.3146L13.4905 19.1604ZM26.3531 20.8125C26.7213 20.8125 27.0198 21.111 27.0198 21.4792V27.3333C27.0198 27.7015 26.7213 28 26.3531 28C26.3069 28 26.2618 27.9953 26.2182 27.9863V27.9999H25.5516H15.2752H14.8152L14.8083 28L14.8013 27.9999H14.6085V27.9695C14.3379 27.8846 14.1416 27.6319 14.1416 27.3333L14.1416 21.4792C14.1416 21.111 14.4401 20.8125 14.8083 20.8125C15.1765 20.8125 15.475 21.111 15.475 21.4792L15.4749 26.6666H25.5516H25.6865V21.4792C25.6865 21.111 25.9849 20.8125 26.3531 20.8125ZM20.5807 19.6173C21.3385 19.6173 21.9528 20.1753 21.9528 20.8637V24.0587C21.9528 24.747 21.3385 25.305 20.5807 25.305C19.823 25.305 19.2087 24.747 19.2087 24.0587V20.8637C19.2087 20.1753 19.823 19.6173 20.5807 19.6173ZM6.4362 11.6867C6.4362 10.9486 6.94101 10.3503 7.56373 10.3503H10.3561V7.57426C10.3561 6.95311 10.9519 6.44958 11.6867 6.44958C12.4216 6.44958 13.0174 6.95311 13.0174 7.57426V10.3503H15.8095C16.4322 10.3503 16.937 10.9486 16.937 11.6867C16.937 12.4247 16.4322 13.0231 15.8095 13.0231H13.0174V15.7991C13.0174 16.4203 12.4216 16.9238 11.6867 16.9238C10.9519 16.9238 10.3561 16.4203 10.3561 15.7991V13.0231H7.56373C6.94101 13.0231 6.4362 12.4247 6.4362 11.6867Z" fill="#EDEFF0"/>
</svg>
