<svg width="40" height="40" viewBox="0 0 40 40" fill="none" xmlns="http://www.w3.org/2000/svg">
<path fill-rule="evenodd" clip-rule="evenodd" d="M18.1938 22.6196C17.0991 23.1103 15.8856 23.3832 14.6083 23.3832C9.762 23.3832 5.83333 19.4545 5.83333 14.6083C5.83333 9.762 9.762 5.83333 14.6083 5.83333C19.4545 5.83333 23.3832 9.762 23.3832 14.6083C23.3832 15.885 23.1105 17.0981 22.6202 18.1925L18.1938 22.6196ZM16.8632 23.9504C16.1399 24.1244 15.3849 24.2165 14.6083 24.2165C9.30177 24.2165 5 19.9148 5 14.6083C5 9.30177 9.30177 5 14.6083 5C19.9148 5 24.2165 9.30177 24.2165 14.6083C24.2165 15.3843 24.1245 16.1389 23.9508 16.8616L25.1144 15.6979C25.1418 15.6704 25.1707 15.6453 25.2007 15.6225C25.5281 15.3546 26.0116 15.3734 26.317 15.6789L30.6769 20.0387V17.9637C30.6769 17.5034 31.05 17.1303 31.5102 17.1303C31.9705 17.1303 32.3435 17.5034 32.3435 17.9637V21.7054L34.7814 24.1432C35.1068 24.4686 35.1068 24.9963 34.7814 25.3217C34.456 25.6471 33.9283 25.6471 33.6029 25.3217L25.7253 17.4441L17.849 25.3216C17.5236 25.6471 16.996 25.6472 16.6705 25.3217C16.3451 24.9963 16.345 24.4687 16.6704 24.1432L16.8632 23.9504ZM32.9414 26.0156C33.4016 26.0156 33.7747 26.3887 33.7747 26.849V34.1666C33.7747 34.6269 33.4016 35 32.9414 35C32.8836 35 32.8273 34.9941 32.7728 34.9829V34.9999H31.9395H19.0939H18.519L18.5103 35L18.5016 34.9999H18.2606V34.9619C17.9224 34.8558 17.677 34.5399 17.677 34.1666L17.677 26.849C17.677 26.3887 18.0501 26.0156 18.5104 26.0156C18.9706 26.0156 19.3437 26.3887 19.3437 26.849L19.3437 33.3332H31.9395H32.1081V26.849C32.1081 26.3887 32.4812 26.0156 32.9414 26.0156ZM25.7259 24.5217C26.6731 24.5217 27.441 25.2192 27.441 26.0796V30.0733C27.441 30.9337 26.6731 31.6312 25.7259 31.6312C24.7787 31.6312 24.0108 30.9337 24.0108 30.0733V26.0796C24.0108 25.2192 24.7787 24.5217 25.7259 24.5217ZM8.04525 14.6083C8.04525 13.6857 8.67627 12.9378 9.45467 12.9378H12.9451V9.46783C12.9451 8.69139 13.6898 8.06197 14.6084 8.06197C15.527 8.06197 16.2717 8.69139 16.2717 9.46783V12.9378H19.7618C20.5402 12.9378 21.1713 13.6857 21.1713 14.6083C21.1713 15.5309 20.5402 16.2788 19.7618 16.2788H16.2717V19.7489C16.2717 20.5254 15.527 21.1548 14.6084 21.1548C13.6898 21.1548 12.9451 20.5254 12.9451 19.7489V16.2788H9.45467C8.67627 16.2788 8.04525 15.5309 8.04525 14.6083Z" fill="#001E2E"/>
</svg>
