<svg width="40" height="40" viewBox="0 0 40 40" fill="none" xmlns="http://www.w3.org/2000/svg">
<path fill-rule="evenodd" clip-rule="evenodd" d="M22.9173 7.49984C24.298 7.49984 25.4173 6.38055 25.4173 4.99984C25.4173 3.61913 24.298 2.49984 22.9173 2.49984C21.5366 2.49984 20.4173 3.61913 20.4173 4.99984V7.49984H22.9173ZM22.9173 8.33317C24.7583 8.33317 26.2507 6.84079 26.2507 4.99984C26.2507 3.15889 24.7583 1.6665 22.9173 1.6665C21.0764 1.6665 19.584 3.15889 19.584 4.99984V8.33317H22.9173Z" fill="#73DAA5"/>
<path fill-rule="evenodd" clip-rule="evenodd" d="M14.5833 3.33333C14.5833 4.71404 15.7026 5.83333 17.0833 5.83333H19.5833V3.33333C19.5833 1.95262 18.464 0.833333 17.0833 0.833333C15.7026 0.833333 14.5833 1.95262 14.5833 3.33333ZM20.4167 6.66667V3.33333C20.4167 1.49238 18.9243 0 17.0833 0C15.2424 0 13.75 1.49238 13.75 3.33333C13.75 5.17428 15.2424 6.66667 17.0833 6.66667H20.4167Z" fill="#73DAA5"/>
<path fill-rule="evenodd" clip-rule="evenodd" d="M6.66732 13.3333H17.9173V10H3.33398V20H17.9173V16.6667H6.66732V13.3333ZM33.334 16.6667H22.084V20H36.6673V10H22.084V13.3333H33.334V16.6667ZM10.0007 33.3333H17.9173V36.6667H6.66732V21.6667H10.0007V33.3333ZM33.334 36.6667H22.084V33.3333H30.0007V21.6667H33.334V36.6667ZM19.584 10H20.4173V20V36.6667H19.584V20V10Z" fill="#73DAA5"/>
</svg>
