<svg width="343" height="188" viewBox="0 0 343 188" fill="none" xmlns="http://www.w3.org/2000/svg">
<rect width="343" height="188" rx="16" fill="url(#paint0_linear_4236_104497)"/>
<g clip-path="url(#clip0_4236_104497)">
<path d="M65 48C65 59.0457 56.0457 68 45 68C33.9543 68 25 59.0457 25 48C25 36.9543 33.9543 28 45 28C56.0457 28 65 36.9543 65 48Z" fill="#7ED0FF" fill-opacity="0.04"/>
<path fill-rule="evenodd" clip-rule="evenodd" d="M66 48C66 59.598 56.598 69 45 69C33.402 69 24 59.598 24 48C24 36.402 33.402 27 45 27C56.598 27 66 36.402 66 48ZM45 68C56.0457 68 65 59.0457 65 48C65 36.9543 56.0457 28 45 28C33.9543 28 25 36.9543 25 48C25 59.0457 33.9543 68 45 68Z" fill="#01F2FF" fill-opacity="0.08"/>
</g>
<path d="M74 48C74 44.134 77.134 41 81 41H256C259.866 41 263 44.134 263 48C263 51.866 259.866 55 256 55H81C77.134 55 74 51.866 74 48Z" fill="#7ED0FF" fill-opacity="0.04"/>
<path fill-rule="evenodd" clip-rule="evenodd" d="M81 40H256C260.418 40 264 43.5817 264 48C264 52.4183 260.418 56 256 56H81C76.5817 56 73 52.4183 73 48C73 43.5817 76.5817 40 81 40ZM81 41C77.134 41 74 44.134 74 48C74 51.866 77.134 55 81 55H256C259.866 55 263 51.866 263 48C263 44.134 259.866 41 256 41H81Z" fill="#00F1FF" fill-opacity="0.08"/>
<path d="M271 28C271 25.7909 272.791 24 275 24H315C317.209 24 319 25.7909 319 28V68C319 70.2091 317.209 72 315 72H275C272.791 72 271 70.2091 271 68V28Z" fill="#7ED0FF" fill-opacity="0.04"/>
<path fill-rule="evenodd" clip-rule="evenodd" d="M315 25H275C273.343 25 272 26.3431 272 28V68C272 69.6569 273.343 71 275 71H315C316.657 71 318 69.6569 318 68V28C318 26.3431 316.657 25 315 25ZM275 24C272.791 24 271 25.7909 271 28V68C271 70.2091 272.791 72 275 72H315C317.209 72 319 70.2091 319 68V28C319 25.7909 317.209 24 315 24H275Z" fill="#00F1FF" fill-opacity="0.08"/>
<path d="M23 101C23 97.134 26.134 94 30 94H220C223.866 94 227 97.134 227 101V101C227 104.866 223.866 108 220 108H30C26.134 108 23 104.866 23 101V101Z" fill="#7ED0FF" fill-opacity="0.04"/>
<path fill-rule="evenodd" clip-rule="evenodd" d="M30 93H220C224.418 93 228 96.5817 228 101C228 105.418 224.418 109 220 109H30C25.5817 109 22 105.418 22 101C22 96.5817 25.5817 93 30 93ZM30 94C26.134 94 23 97.134 23 101C23 104.866 26.134 108 30 108H220C223.866 108 227 104.866 227 101C227 97.134 223.866 94 220 94H30Z" fill="#00F1FF" fill-opacity="0.08"/>
<path d="M23 128C23 124.134 26.134 121 30 121H169C172.866 121 176 124.134 176 128V128C176 131.866 172.866 135 169 135H30C26.134 135 23 131.866 23 128V128Z" fill="#7ED0FF" fill-opacity="0.04"/>
<path fill-rule="evenodd" clip-rule="evenodd" d="M30 120H169C173.418 120 177 123.582 177 128C177 132.418 173.418 136 169 136H30C25.5817 136 22 132.418 22 128C22 123.582 25.5817 120 30 120ZM30 121C26.134 121 23 124.134 23 128C23 131.866 26.134 135 30 135H169C172.866 135 176 131.866 176 128C176 124.134 172.866 121 169 121H30Z" fill="#00F1FF" fill-opacity="0.08"/>
<path d="M24 168C24 165.239 26.2386 163 29 163H115C117.761 163 120 165.239 120 168V168C120 170.761 117.761 173 115 173H29C26.2386 173 24 170.761 24 168V168Z" fill="#7ED0FF" fill-opacity="0.04"/>
<path fill-rule="evenodd" clip-rule="evenodd" d="M29 162H115C118.314 162 121 164.686 121 168C121 171.314 118.314 174 115 174H29C25.6863 174 23 171.314 23 168C23 164.686 25.6863 162 29 162ZM29 163C26.2386 163 24 165.239 24 168C24 170.761 26.2386 173 29 173H115C117.761 173 120 170.761 120 168C120 165.239 117.761 163 115 163H29Z" fill="#00F1FF" fill-opacity="0.08"/>
<path d="M239 168C239 165.239 241.239 163 244 163H314C316.761 163 319 165.239 319 168V168C319 170.761 316.761 173 314 173H244C241.239 173 239 170.761 239 168V168Z" fill="#7ED0FF" fill-opacity="0.04"/>
<path fill-rule="evenodd" clip-rule="evenodd" d="M244 162H314C317.314 162 320 164.686 320 168C320 171.314 317.314 174 314 174H244C240.686 174 238 171.314 238 168C238 164.686 240.686 162 244 162ZM244 163C241.239 163 239 165.239 239 168C239 170.761 241.239 173 244 173H314C316.761 173 319 170.761 319 168C319 165.239 316.761 163 314 163H244Z" fill="#00F1FF" fill-opacity="0.08"/>
<defs>
<linearGradient id="paint0_linear_4236_104497" x1="34" y1="34.5" x2="308" y2="170" gradientUnits="userSpaceOnUse">
<stop stop-color="#1B3D4E"/>
<stop offset="1" stop-color="#2E3B4B"/>
</linearGradient>
<clipPath id="clip0_4236_104497">
<rect width="42" height="42" fill="white" transform="translate(24 27)"/>
</clipPath>
</defs>
</svg>
