<svg width="24" height="26" viewBox="0 0 24 26" fill="none" xmlns="http://www.w3.org/2000/svg">
<path fill-rule="evenodd" clip-rule="evenodd" d="M21.9172 6.55094L14.9901 6.42712L16.4303 4.03243C15.095 3.37146 13.5909 2.99997 12 2.99997C6.47715 2.99997 2 7.47712 2 13H0C0 6.37255 5.37258 0.999967 12 0.999967C13.968 0.999967 15.8253 1.47371 17.4642 2.31337L18.5609 0.48999L21.9172 6.55094ZM2.11638 19.3942L9.04059 19.6292L7.57958 21.9724C8.91244 22.6303 10.4131 23 12 23C17.5228 23 22 18.5228 22 13H24C24 19.6274 18.6274 25 12 25C10.0244 25 8.16034 24.5226 6.51684 23.6768L5.37492 25.5082L2.11638 19.3942Z" fill="#70818A" fill-opacity="0.38"/>
</svg>
