<svg width="120" height="120" viewBox="0 0 120 120" fill="none" xmlns="http://www.w3.org/2000/svg">
<g clip-path="url(#clip0_4508_106748)">
<path fill-rule="evenodd" clip-rule="evenodd" d="M93 73.2524H33V119.236C33 119.613 33.3056 119.919 33.6826 119.919H92.3174C92.6944 119.919 93 119.613 93 119.236V73.2524ZM86.3335 79.9191H39.6668V113.252H86.3335V79.9191Z" fill="#00FFD3"/>
<path d="M82.9999 93.2525H92.9999V99.9192H82.9999V93.2525Z" fill="#00FFD3"/>
<path d="M84.671 67.8098C84.671 67.8098 84.5266 66.686 83.6553 65.9742C82.784 65.2623 80.7387 65.7137 80.7387 65.7137L34.6709 74.9194L84.671 74.9194L84.671 67.8098Z" fill="#00FFD3" fill-opacity="0.1"/>
<path fill-rule="evenodd" clip-rule="evenodd" d="M36.3951 74.7488L84.4996 74.7488L84.4996 67.822C84.4985 67.8149 84.4968 67.804 84.4942 67.7897C84.4891 67.7604 84.4807 67.7168 84.4679 67.6618C84.4422 67.5518 84.3992 67.3972 84.3302 67.2212C84.1917 66.8679 83.9521 66.4376 83.5465 66.1063C83.3596 65.9536 83.0997 65.856 82.8003 65.801C82.5026 65.7463 82.1787 65.7359 81.876 65.7475C81.574 65.7592 81.2977 65.7925 81.0967 65.823C80.9964 65.8383 80.9152 65.8528 80.8593 65.8634C80.8314 65.8687 80.8099 65.873 80.7955 65.876L80.7794 65.8793L80.7756 65.8802L80.7748 65.8803M84.6702 67.8098C84.8395 67.7881 84.8395 67.788 84.8395 67.7879L84.8393 67.7863L84.8388 67.783L84.8371 67.7715C84.8357 67.7618 84.8335 67.748 84.8304 67.7306C84.8243 67.6957 84.8146 67.6459 84.8003 67.5844C84.7716 67.4614 84.7241 67.2906 84.648 67.0967C84.4965 66.7101 84.2283 66.2226 83.7625 65.842C83.5138 65.6388 83.1913 65.5258 82.8621 65.4653C82.5312 65.4045 82.1804 65.3942 81.8629 65.4065C81.5447 65.4187 81.2552 65.4537 81.0454 65.4856C80.9404 65.5015 80.855 65.5168 80.7956 65.5281C80.7659 65.5337 80.7426 65.5384 80.7266 65.5417L80.7081 65.5455L80.7045 65.5464L80.7032 65.5466L80.7018 65.5469L34.6367 74.7521L34.6701 75.0901L84.8409 75.0901L84.8409 67.7989L84.8395 67.7879L84.6702 67.8098Z" fill="#00FFD3"/>
<rect x="40" y="4" width="43" height="69" fill="url(#paint0_linear_4508_106748)"/>
<rect x="45" y="4" width="17" height="69" fill="url(#paint1_linear_4508_106748)"/>
<rect x="68" y="42" width="1" height="25" fill="url(#paint2_linear_4508_106748)"/>
<rect x="78" y="30" width="1" height="30" fill="url(#paint3_linear_4508_106748)"/>
<rect x="43" y="33" width="1" height="17" fill="url(#paint4_linear_4508_106748)"/>
<path fill-rule="evenodd" clip-rule="evenodd" d="M73.2859 56H72.7145V57.7145H71V58.2859H72.7145V60H73.2859V58.2859H75V57.7145H73.2859V56Z" fill="#00FFD3"/>
<path fill-rule="evenodd" clip-rule="evenodd" d="M50.4287 62H49.5715V64.5715H47V65.4287H49.5715V68H50.4287V65.4287H53V64.5715H50.4287V62Z" fill="#00FFD3"/>
<path fill-rule="evenodd" clip-rule="evenodd" d="M55.7148 45H54.2862V49.2862H50V50.7148H54.2862V55H55.7148V50.7148H60V49.2862H55.7148V45Z" fill="#00FFD3"/>
<path fill-rule="evenodd" clip-rule="evenodd" d="M53.7701 26.394L62.9087 8.75063L75.2629 15.1496L63.1048 38.6226L61.2083 37.6402C61.1189 35.7206 60.0366 33.8996 58.2075 32.9522C56.3784 32.0048 54.2667 32.1714 52.6472 33.2059L50.7506 32.2236L53.3102 27.282L53.5801 27.4218L54.0401 26.5339L53.7701 26.394ZM56.9277 35.4231C58.2923 36.1299 58.8256 37.8091 58.1188 39.1737L64.2959 42.3732L79.0135 13.9586L61.7176 5L47 33.4146L53.1771 36.6141C53.8839 35.2495 55.5631 34.7163 56.9277 35.4231ZM55.3561 28.3417L57.132 29.2615L57.5919 28.3736L55.816 27.4537L55.3561 28.3417ZM58.9079 30.1814L60.6838 31.1012L61.1437 30.2133L59.3678 29.2934L58.9079 30.1814ZM62.4597 32.0211L64.2356 32.9409L64.6956 32.053L62.9196 31.1331L62.4597 32.0211Z" fill="#00FFD3"/>
<path d="M103 47L104.812 42.4711C105.574 40.5638 105.574 38.4362 104.812 36.5289L104.155 34.8883C103.412 33.0305 103.392 30.9617 104.099 29.09L104.866 27.0613C105.594 25.1343 105.55 23.0008 104.745 21.105L103 17" stroke="#625A7C" stroke-width="2"/>
<path d="M13 30L14.8115 25.4711C15.5745 23.5638 15.5745 21.4362 14.8115 19.5289L14.1553 17.8883C13.4122 16.0305 13.3922 13.9617 14.0994 12.09L14.8657 10.0613C15.5937 8.13429 15.5503 6.00076 14.7446 4.10496L13 -2.38419e-07" stroke="#625A7C" stroke-width="2"/>
<path d="M20 115L21.8115 110.471C22.5745 108.564 22.5745 106.436 21.8115 104.529L21.1553 102.888C20.4122 101.031 20.3922 98.9617 21.0994 97.09L21.8657 95.0613C22.5937 93.1343 22.5503 91.0008 21.7446 89.105L20 85" stroke="#00658D" stroke-width="2"/>
<path d="M114 103L115.812 98.4711C116.574 96.5638 116.574 94.4362 115.812 92.5289L115.155 90.8883C114.412 89.0305 114.392 86.9617 115.099 85.09L115.866 83.0613C116.594 81.1343 116.55 79.0008 115.745 77.105L114 73" stroke="#625A7C" stroke-width="2"/>
<path d="M29 61.5L27.1553 56.8883C26.4122 55.0305 26.3922 52.9617 27.0994 51.09L29 46.0588" stroke="#625A7C" stroke-width="2"/>
<path d="M105.232 57.3789L106.977 61.4839C107.783 63.3797 107.826 65.5132 107.098 67.4402L105.232 72.3789" stroke="#00658D" stroke-width="2"/>
<path d="M100 103L101.745 107.105C102.55 109.001 102.594 111.134 101.866 113.061L100 118" stroke="#00658D" stroke-width="2"/>
<path d="M8 68L9.74461 72.105C10.5503 74.0008 10.5937 76.1343 9.86574 78.0613L8 83" stroke="#00658D" stroke-width="2"/>
<path d="M94 18L92.2554 13.895C91.4497 11.9992 91.4063 9.86571 92.1343 7.93871L94 3" stroke="#00658D" stroke-width="2"/>
<rect x="93.9455" y="40.5825" width="2" height="2" transform="rotate(10.459 93.9455 40.5825)" fill="#625A7C" stroke="#625A7C"/>
<rect x="99.1195" y="86.3876" width="3" height="3" transform="rotate(-5.13383 99.1195 86.3876)" fill="#625A7C"/>
<rect x="4.11835" y="49.389" width="3" height="3" transform="rotate(-5.18176 4.11835 49.389)" fill="#00658D"/>
<rect x="24" y="74.4991" width="3" height="3" transform="rotate(-9.57574 24 74.4991)" fill="#625A7C"/>
<rect x="7.54492" y="101" width="3" height="3" transform="rotate(10.459 7.54492 101)" fill="#625A7C"/>
<rect x="25.6964" y="6.20675" width="3" height="3" transform="rotate(-30.2352 25.6964 6.20675)" fill="#00658D"/>
<rect x="113.102" y="42.4088" width="3" height="3" transform="rotate(-5.87491 113.102 42.4088)" fill="#625A7C"/>
<rect x="108.539" y="9.69967" width="2" height="2" transform="rotate(-4.61821 108.539 9.69967)" fill="#625A7C" stroke="#625A7C"/>
</g>
<defs>
<linearGradient id="paint0_linear_4508_106748" x1="61.5" y1="4" x2="61.5" y2="73" gradientUnits="userSpaceOnUse">
<stop stop-color="#3B9E9A" stop-opacity="0"/>
<stop offset="1" stop-color="#3B9E9A" stop-opacity="0.2"/>
</linearGradient>
<linearGradient id="paint1_linear_4508_106748" x1="53.5" y1="4" x2="53" y2="77" gradientUnits="userSpaceOnUse">
<stop stop-color="#3B9E9A" stop-opacity="0"/>
<stop offset="0.84048" stop-color="#00A6F3" stop-opacity="0.18"/>
<stop offset="1" stop-color="#00A6F3" stop-opacity="0"/>
</linearGradient>
<linearGradient id="paint2_linear_4508_106748" x1="68.5" y1="42" x2="68.5" y2="67" gradientUnits="userSpaceOnUse">
<stop stop-color="#01F2FF" stop-opacity="0"/>
<stop offset="0.669675" stop-color="#00BFF7" stop-opacity="0.4"/>
<stop offset="1" stop-color="#00A6F3" stop-opacity="0"/>
</linearGradient>
<linearGradient id="paint3_linear_4508_106748" x1="78.5" y1="30" x2="78.5" y2="60" gradientUnits="userSpaceOnUse">
<stop stop-color="#01F2FF" stop-opacity="0"/>
<stop offset="0.812747" stop-color="#00BDF7" stop-opacity="0.5"/>
<stop offset="1" stop-color="#00B0F5" stop-opacity="0"/>
</linearGradient>
<linearGradient id="paint4_linear_4508_106748" x1="43.5" y1="33" x2="43.5" y2="50" gradientUnits="userSpaceOnUse">
<stop stop-color="#01F2FF" stop-opacity="0"/>
<stop offset="0.812747" stop-color="#00BDF7" stop-opacity="0.5"/>
<stop offset="1" stop-color="#00B0F5" stop-opacity="0"/>
</linearGradient>
<clipPath id="clip0_4508_106748">
<rect width="120" height="120" fill="white"/>
</clipPath>
</defs>
</svg>
