<svg width="155" height="128" viewBox="0 0 155 128" fill="none" xmlns="http://www.w3.org/2000/svg">
<g opacity="0.14">
<g opacity="0.5">
<path fill-rule="evenodd" clip-rule="evenodd" d="M119.049 4.6343L110.311 19.7686H92.8354L84.0977 4.6343L92.8354 -10.5H110.311L119.049 4.6343Z" stroke="#54BC89" stroke-width="1.5" stroke-linecap="square" stroke-linejoin="round"/>
<path fill-rule="evenodd" clip-rule="evenodd" d="M84.0977 109.48L75.3599 124.614H57.8843L49.1465 109.48L57.8843 94.3457H75.3599L84.0977 109.48Z" stroke="#54BC89" stroke-width="1.5" stroke-linecap="square" stroke-linejoin="round"/>
<path d="M31.7383 56.9004C41.3898 56.9004 49.2139 49.0763 49.2139 39.4248C49.2139 29.7733 41.3898 21.9492 31.7383 21.9492C22.0868 21.9492 14.2627 29.7733 14.2627 39.4248C14.2627 49.0763 22.0868 56.9004 31.7383 56.9004Z" stroke="#54BC89" stroke-width="1.5" stroke-linecap="square" stroke-linejoin="round"/>
<path d="M101.641 56.9004C111.293 56.9004 119.117 49.0763 119.117 39.4248C119.117 29.7733 111.293 21.9492 101.641 21.9492C91.9896 21.9492 84.1655 29.7733 84.1655 39.4248C84.1655 49.0763 91.9896 56.9004 101.641 56.9004Z" stroke="#54BC89" stroke-width="1.5" stroke-linecap="square" stroke-linejoin="round"/>
<path d="M66.6899 91.8545C76.3414 91.8545 84.1655 84.0304 84.1655 74.3789C84.1655 64.7274 76.3414 56.9033 66.6899 56.9033C57.0384 56.9033 49.2144 64.7274 49.2144 74.3789C49.2144 84.0304 57.0384 91.8545 66.6899 91.8545Z" stroke="#54BC89" stroke-width="1.5" stroke-linecap="square" stroke-linejoin="round"/>
<path d="M101.641 91.8545C111.293 91.8545 119.117 84.0304 119.117 74.3789C119.117 64.7274 111.293 56.9033 101.641 56.9033C91.9896 56.9033 84.1655 64.7274 84.1655 74.3789C84.1655 84.0304 91.9896 91.8545 101.641 91.8545Z" stroke="#54BC89" stroke-width="1.5" stroke-linecap="square" stroke-linejoin="round"/>
<path fill-rule="evenodd" clip-rule="evenodd" d="M75.9572 59.5644C73.1786 57.8258 69.9672 56.9037 66.6895 56.9033C57.038 56.9036 49.2142 64.7279 49.2144 74.3793C49.2146 84.0304 57.0384 91.8542 66.6895 91.8545C69.9683 91.8475 73.1799 90.9243 75.9572 89.1815V59.5644Z" fill="#54BC89" fill-opacity="0.565854" stroke="#54BC89" stroke-width="2" stroke-linecap="square" stroke-linejoin="round"/>
<path fill-rule="evenodd" clip-rule="evenodd" d="M154 39.5464L145.262 54.6807H127.787L119.049 39.5464L127.787 24.4121H145.262L154 39.5464Z" stroke="#54BC89" stroke-width="1.5" stroke-linecap="square" stroke-linejoin="round"/>
<path fill-rule="evenodd" clip-rule="evenodd" d="M154 74.4947L145.262 89.629H127.787L119.049 74.4947L127.787 59.3604H145.262L154 74.4947Z" stroke="#54BC89" stroke-width="1.5" stroke-linecap="square" stroke-linejoin="round"/>
<path fill-rule="evenodd" clip-rule="evenodd" d="M13.9512 39.5464L5.21338 54.6807H-12.2622L-21 39.5464L-12.2622 24.4121H5.21338L13.9512 39.5464Z" stroke="#54BC89" stroke-width="1.5" stroke-linecap="square" stroke-linejoin="round"/>
<path fill-rule="evenodd" clip-rule="evenodd" d="M13.9512 74.4947L5.21338 89.629H-12.2622L-21 74.4947L-12.2622 59.3604H5.21338L13.9512 74.4947Z" stroke="#54BC89" stroke-width="1.5" stroke-linecap="square" stroke-linejoin="round"/>
<path d="M66.7124 21.9512C76.3639 21.9512 84.188 14.1271 84.188 4.47559C84.188 -5.17591 76.3639 -13 66.7124 -13C57.0609 -13 49.2368 -5.17591 49.2368 4.47559C49.2368 14.1271 57.0609 21.9512 66.7124 21.9512Z" stroke="#54BC89" stroke-width="1.5" stroke-linecap="square" stroke-linejoin="round"/>
<path d="M31.7383 126.803C41.3898 126.803 49.2139 118.979 49.2139 109.327C49.2139 99.6757 41.3898 91.8516 31.7383 91.8516C22.0868 91.8516 14.2627 99.6757 14.2627 109.327C14.2627 118.979 22.0868 126.803 31.7383 126.803Z" stroke="#54BC89" stroke-width="1.5" stroke-linecap="square" stroke-linejoin="round"/>
<path d="M101.641 126.803C111.293 126.803 119.117 118.979 119.117 109.327C119.117 99.6757 111.293 91.8516 101.641 91.8516C91.9896 91.8516 84.1655 99.6757 84.1655 109.327C84.1655 118.979 91.9896 126.803 101.641 126.803Z" stroke="#54BC89" stroke-width="1.5" stroke-linecap="square" stroke-linejoin="round"/>
<path fill-rule="evenodd" clip-rule="evenodd" d="M31.7388 56.8994C29.4439 56.8994 27.1714 57.3514 25.0512 58.2297C22.9309 59.1079 21.0044 60.3952 19.3817 62.0179C17.7589 63.6407 16.4717 65.5671 15.5934 67.6874C14.7152 69.8076 14.2632 72.0801 14.2632 74.375C14.265 78.8157 15.9574 83.0892 18.9964 86.3272V103.676H27.734V91.381C29.0463 91.6915 30.3902 91.8491 31.7388 91.8506C34.0337 91.8506 36.3062 91.3986 38.4264 90.5204C40.5466 89.6422 42.4732 88.3549 44.0959 86.7321C45.7187 85.1094 47.0059 83.1829 47.8842 81.0627C48.7624 78.9424 49.2144 76.67 49.2144 74.375C49.2144 72.0801 48.7624 69.8076 47.8842 67.6874C47.0059 65.5671 45.7187 63.6407 44.0959 62.0179C42.4732 60.3952 40.5466 59.1079 38.4264 58.2297C36.3062 57.3514 34.0337 56.8994 31.7388 56.8994Z" fill="#54BC89" fill-opacity="0.565854" stroke="#54BC89" stroke-width="2" stroke-linecap="square" stroke-linejoin="round"/>
<path fill-rule="evenodd" clip-rule="evenodd" d="M86.8425 65.1338C85.1057 67.9093 84.1845 71.1173 84.1841 74.3914C84.1852 78.2606 85.4718 82.0198 87.8417 85.0783C90.2115 88.1368 93.5303 90.3214 97.2766 91.2887V103.66H106.005V91.2887C109.751 90.3213 113.07 88.1367 115.44 85.0782C117.81 82.0197 119.096 78.2606 119.097 74.3914C119.094 71.1162 118.168 67.9081 116.428 65.1338H86.8425Z" fill="#54BC89" fill-opacity="0.565854" stroke="#54BC89" stroke-width="2" stroke-linecap="square" stroke-linejoin="round"/>
<path fill-rule="evenodd" clip-rule="evenodd" d="M49.1465 4.6343L40.4087 19.7686H22.9331L14.1953 4.6343L22.9331 -10.5H40.4087L49.1465 4.6343Z" stroke="#54BC89" stroke-width="1.5" stroke-linecap="square" stroke-linejoin="round"/>
<path fill-rule="evenodd" clip-rule="evenodd" d="M53.9471 9.93945V27.4769C50.908 30.7149 49.2156 34.9885 49.2139 39.4294C49.2139 41.7243 49.6659 43.9968 50.5441 46.117C51.4223 48.2373 52.7096 50.1637 54.3323 51.7865C55.9551 53.4092 57.8816 54.6965 60.0019 55.5748C62.1221 56.453 64.3945 56.905 66.6895 56.905C68.9844 56.905 71.2568 56.453 73.3771 55.5748C75.4973 54.6965 77.4238 53.4092 79.0466 51.7865C80.6694 50.1637 81.9566 48.2373 82.8348 46.117C83.7131 43.9968 84.1651 41.7243 84.1651 39.4294C84.1651 37.1345 83.7131 34.862 82.8348 32.7417C81.9566 30.6215 80.6694 28.6951 79.0466 27.0723C77.4238 25.4495 75.4974 24.1622 73.3771 23.284C71.2569 22.4058 68.9844 21.9538 66.6895 21.9538C65.3409 21.9553 63.997 22.1129 62.6847 22.4234V9.93945H53.9471Z" fill="#54BC89" fill-opacity="0.565854" stroke="#54BC89" stroke-width="2" stroke-linecap="square" stroke-linejoin="round"/>
<path fill-rule="evenodd" clip-rule="evenodd" d="M40.694 24.6102C37.9155 22.8717 34.704 21.9496 31.4263 21.9492C21.7749 21.9495 13.951 29.7738 13.9512 39.4252C13.9515 49.0763 21.7752 56.9001 31.4263 56.9004C34.7051 56.9004 37.9167 55.9701 40.694 54.2273V24.6102Z" fill="#54BC89" fill-opacity="0.565854" stroke="#54BC89" stroke-width="2" stroke-linecap="square" stroke-linejoin="round"/>
<path fill-rule="evenodd" clip-rule="evenodd" d="M101.641 21.9541C97.0059 21.9542 92.5609 23.7956 89.2837 27.073C86.0065 30.3503 84.1654 34.7953 84.1655 39.4301C84.1657 44.0648 86.0068 48.5096 89.284 51.7868C92.5612 55.064 97.006 56.9051 101.641 56.9053V21.9541Z" fill="#54BC89" fill-opacity="0.565854" stroke="#54BC89" stroke-width="2" stroke-linecap="square" stroke-linejoin="round"/>
</g>
<g opacity="0.5">
<path fill-rule="evenodd" clip-rule="evenodd" d="M119.049 4.6343L110.311 19.7686H92.8354L84.0977 4.6343L92.8354 -10.5H110.311L119.049 4.6343Z" stroke="#00A8F3" stroke-width="1.5" stroke-linecap="square" stroke-linejoin="round"/>
<path fill-rule="evenodd" clip-rule="evenodd" d="M84.0977 109.48L75.3599 124.614H57.8843L49.1465 109.48L57.8843 94.3457H75.3599L84.0977 109.48Z" stroke="#00A8F3" stroke-width="1.5" stroke-linecap="square" stroke-linejoin="round"/>
<path d="M31.7383 56.9004C41.3898 56.9004 49.2139 49.0763 49.2139 39.4248C49.2139 29.7733 41.3898 21.9492 31.7383 21.9492C22.0868 21.9492 14.2627 29.7733 14.2627 39.4248C14.2627 49.0763 22.0868 56.9004 31.7383 56.9004Z" stroke="#00A8F3" stroke-width="1.5" stroke-linecap="square" stroke-linejoin="round"/>
<path d="M101.641 56.9004C111.293 56.9004 119.117 49.0763 119.117 39.4248C119.117 29.7733 111.293 21.9492 101.641 21.9492C91.9896 21.9492 84.1655 29.7733 84.1655 39.4248C84.1655 49.0763 91.9896 56.9004 101.641 56.9004Z" stroke="#00A8F3" stroke-width="1.5" stroke-linecap="square" stroke-linejoin="round"/>
<path d="M66.6899 91.8545C76.3414 91.8545 84.1655 84.0304 84.1655 74.3789C84.1655 64.7274 76.3414 56.9033 66.6899 56.9033C57.0384 56.9033 49.2144 64.7274 49.2144 74.3789C49.2144 84.0304 57.0384 91.8545 66.6899 91.8545Z" stroke="#00A8F3" stroke-width="1.5" stroke-linecap="square" stroke-linejoin="round"/>
<path d="M101.641 91.8545C111.293 91.8545 119.117 84.0304 119.117 74.3789C119.117 64.7274 111.293 56.9033 101.641 56.9033C91.9896 56.9033 84.1655 64.7274 84.1655 74.3789C84.1655 84.0304 91.9896 91.8545 101.641 91.8545Z" stroke="#00A8F3" stroke-width="1.5" stroke-linecap="square" stroke-linejoin="round"/>
<path fill-rule="evenodd" clip-rule="evenodd" d="M75.9572 59.5644C73.1786 57.8258 69.9672 56.9037 66.6895 56.9033C57.038 56.9036 49.2142 64.7279 49.2144 74.3793C49.2146 84.0304 57.0384 91.8542 66.6895 91.8545C69.9683 91.8475 73.1799 90.9243 75.9572 89.1815V59.5644Z" fill="#00A8F3" fill-opacity="0.465854" stroke="#00A8F3" stroke-width="2" stroke-linecap="square" stroke-linejoin="round"/>
<path fill-rule="evenodd" clip-rule="evenodd" d="M154 39.5464L145.262 54.6807H127.787L119.049 39.5464L127.787 24.4121H145.262L154 39.5464Z" stroke="#00A8F3" stroke-width="1.5" stroke-linecap="square" stroke-linejoin="round"/>
<path fill-rule="evenodd" clip-rule="evenodd" d="M154 74.4947L145.262 89.629H127.787L119.049 74.4947L127.787 59.3604H145.262L154 74.4947Z" stroke="#00A8F3" stroke-width="1.5" stroke-linecap="square" stroke-linejoin="round"/>
<path fill-rule="evenodd" clip-rule="evenodd" d="M13.9512 39.5464L5.21338 54.6807H-12.2622L-21 39.5464L-12.2622 24.4121H5.21338L13.9512 39.5464Z" stroke="#00A8F3" stroke-width="1.5" stroke-linecap="square" stroke-linejoin="round"/>
<path fill-rule="evenodd" clip-rule="evenodd" d="M13.9512 74.4947L5.21338 89.629H-12.2622L-21 74.4947L-12.2622 59.3604H5.21338L13.9512 74.4947Z" stroke="#00A8F3" stroke-width="1.5" stroke-linecap="square" stroke-linejoin="round"/>
<path d="M66.7124 21.9512C76.3639 21.9512 84.188 14.1271 84.188 4.47559C84.188 -5.17591 76.3639 -13 66.7124 -13C57.0609 -13 49.2368 -5.17591 49.2368 4.47559C49.2368 14.1271 57.0609 21.9512 66.7124 21.9512Z" stroke="#00A8F3" stroke-width="1.5" stroke-linecap="square" stroke-linejoin="round"/>
<path d="M31.7383 126.803C41.3898 126.803 49.2139 118.979 49.2139 109.327C49.2139 99.6757 41.3898 91.8516 31.7383 91.8516C22.0868 91.8516 14.2627 99.6757 14.2627 109.327C14.2627 118.979 22.0868 126.803 31.7383 126.803Z" stroke="#00A8F3" stroke-width="1.5" stroke-linecap="square" stroke-linejoin="round"/>
<path d="M101.641 126.803C111.293 126.803 119.117 118.979 119.117 109.327C119.117 99.6757 111.293 91.8516 101.641 91.8516C91.9896 91.8516 84.1655 99.6757 84.1655 109.327C84.1655 118.979 91.9896 126.803 101.641 126.803Z" stroke="#00A8F3" stroke-width="1.5" stroke-linecap="square" stroke-linejoin="round"/>
<path fill-rule="evenodd" clip-rule="evenodd" d="M31.7388 56.8994C29.4439 56.8994 27.1714 57.3514 25.0512 58.2297C22.9309 59.1079 21.0044 60.3952 19.3817 62.0179C17.7589 63.6407 16.4717 65.5671 15.5934 67.6874C14.7152 69.8076 14.2632 72.0801 14.2632 74.375C14.265 78.8157 15.9574 83.0892 18.9964 86.3272V103.676H27.734V91.381C29.0463 91.6915 30.3902 91.8491 31.7388 91.8506C34.0337 91.8506 36.3062 91.3986 38.4264 90.5204C40.5466 89.6422 42.4732 88.3549 44.0959 86.7321C45.7187 85.1094 47.0059 83.1829 47.8842 81.0627C48.7624 78.9424 49.2144 76.67 49.2144 74.375C49.2144 72.0801 48.7624 69.8076 47.8842 67.6874C47.0059 65.5671 45.7187 63.6407 44.0959 62.0179C42.4732 60.3952 40.5466 59.1079 38.4264 58.2297C36.3062 57.3514 34.0337 56.8994 31.7388 56.8994Z" fill="#00A8F3" fill-opacity="0.465854" stroke="#00A8F3" stroke-width="2" stroke-linecap="square" stroke-linejoin="round"/>
<path fill-rule="evenodd" clip-rule="evenodd" d="M86.8425 65.1338C85.1057 67.9093 84.1845 71.1173 84.1841 74.3914C84.1852 78.2606 85.4718 82.0198 87.8417 85.0783C90.2115 88.1368 93.5303 90.3214 97.2766 91.2887V103.66H106.005V91.2887C109.751 90.3213 113.07 88.1367 115.44 85.0782C117.81 82.0197 119.096 78.2606 119.097 74.3914C119.094 71.1162 118.168 67.9081 116.428 65.1338H86.8425Z" fill="#00A8F3" fill-opacity="0.465854" stroke="#00A8F3" stroke-width="2" stroke-linecap="square" stroke-linejoin="round"/>
<path fill-rule="evenodd" clip-rule="evenodd" d="M49.1465 4.6343L40.4087 19.7686H22.9331L14.1953 4.6343L22.9331 -10.5H40.4087L49.1465 4.6343Z" stroke="#00A8F3" stroke-width="1.5" stroke-linecap="square" stroke-linejoin="round"/>
<path fill-rule="evenodd" clip-rule="evenodd" d="M53.9471 9.93945V27.4769C50.908 30.7149 49.2156 34.9885 49.2139 39.4294C49.2139 41.7243 49.6659 43.9968 50.5441 46.117C51.4223 48.2373 52.7096 50.1637 54.3323 51.7865C55.9551 53.4092 57.8816 54.6965 60.0019 55.5748C62.1221 56.453 64.3945 56.905 66.6895 56.905C68.9844 56.905 71.2568 56.453 73.3771 55.5748C75.4973 54.6965 77.4238 53.4092 79.0466 51.7865C80.6694 50.1637 81.9566 48.2373 82.8348 46.117C83.7131 43.9968 84.1651 41.7243 84.1651 39.4294C84.1651 37.1345 83.7131 34.862 82.8348 32.7417C81.9566 30.6215 80.6694 28.6951 79.0466 27.0723C77.4238 25.4495 75.4974 24.1622 73.3771 23.284C71.2569 22.4058 68.9844 21.9538 66.6895 21.9538C65.3409 21.9553 63.997 22.1129 62.6847 22.4234V9.93945H53.9471Z" fill="#00A8F3" fill-opacity="0.465854" stroke="#00A8F3" stroke-width="2" stroke-linecap="square" stroke-linejoin="round"/>
<path fill-rule="evenodd" clip-rule="evenodd" d="M40.694 24.6102C37.9155 22.8717 34.704 21.9496 31.4263 21.9492C21.7749 21.9495 13.951 29.7738 13.9512 39.4252C13.9515 49.0763 21.7752 56.9001 31.4263 56.9004C34.7051 56.9004 37.9167 55.9701 40.694 54.2273V24.6102Z" fill="#00A8F3" fill-opacity="0.465854" stroke="#00A8F3" stroke-width="2" stroke-linecap="square" stroke-linejoin="round"/>
<path fill-rule="evenodd" clip-rule="evenodd" d="M101.641 21.9541C97.0059 21.9542 92.5609 23.7956 89.2837 27.073C86.0065 30.3503 84.1654 34.7953 84.1655 39.4301C84.1657 44.0648 86.0068 48.5096 89.284 51.7868C92.5612 55.064 97.006 56.9051 101.641 56.9053V21.9541Z" fill="#00A8F3" fill-opacity="0.465854" stroke="#00A8F3" stroke-width="2" stroke-linecap="square" stroke-linejoin="round"/>
</g>
</g>
</svg>
