<svg width="164" height="121" viewBox="0 0 164 121" fill="none" xmlns="http://www.w3.org/2000/svg">
<g opacity="0.14">
<g opacity="0.5">
<path fill-rule="evenodd" clip-rule="evenodd" d="M141.049 18.6343L132.311 33.7686H114.835L106.098 18.6343L114.835 3.5H132.311L141.049 18.6343Z" stroke="#54BC89" stroke-width="1.5" stroke-linecap="square" stroke-linejoin="round"/>
<path fill-rule="evenodd" clip-rule="evenodd" d="M106.098 123.48L97.3599 138.614H79.8843L71.1465 123.48L79.8843 108.346H97.3599L106.098 123.48Z" stroke="#54BC89" stroke-width="1.5" stroke-linecap="square" stroke-linejoin="round"/>
<path d="M53.7383 70.9004C63.3898 70.9004 71.2139 63.0763 71.2139 53.4248C71.2139 43.7733 63.3898 35.9492 53.7383 35.9492C44.0868 35.9492 36.2627 43.7733 36.2627 53.4248C36.2627 63.0763 44.0868 70.9004 53.7383 70.9004Z" stroke="#54BC89" stroke-width="1.5" stroke-linecap="square" stroke-linejoin="round"/>
<path d="M123.641 70.9004C133.293 70.9004 141.117 63.0763 141.117 53.4248C141.117 43.7733 133.293 35.9492 123.641 35.9492C113.99 35.9492 106.166 43.7733 106.166 53.4248C106.166 63.0763 113.99 70.9004 123.641 70.9004Z" stroke="#54BC89" stroke-width="1.5" stroke-linecap="square" stroke-linejoin="round"/>
<path d="M88.6899 105.855C98.3414 105.855 106.166 98.0304 106.166 88.3789C106.166 78.7274 98.3414 70.9033 88.6899 70.9033C79.0384 70.9033 71.2144 78.7274 71.2144 88.3789C71.2144 98.0304 79.0384 105.855 88.6899 105.855Z" stroke="#54BC89" stroke-width="1.5" stroke-linecap="square" stroke-linejoin="round"/>
<path d="M123.641 105.855C133.293 105.855 141.117 98.0304 141.117 88.3789C141.117 78.7274 133.293 70.9033 123.641 70.9033C113.99 70.9033 106.166 78.7274 106.166 88.3789C106.166 98.0304 113.99 105.855 123.641 105.855Z" stroke="#54BC89" stroke-width="1.5" stroke-linecap="square" stroke-linejoin="round"/>
<path fill-rule="evenodd" clip-rule="evenodd" d="M97.9572 73.5644C95.1786 71.8258 91.9672 70.9037 88.6895 70.9033C79.038 70.9036 71.2142 78.7279 71.2144 88.3793C71.2146 98.0304 79.0384 105.854 88.6895 105.855C91.9683 105.847 95.1799 104.924 97.9572 103.182V73.5644Z" fill="#54BC89" fill-opacity="0.565854" stroke="#54BC89" stroke-width="2" stroke-linecap="square" stroke-linejoin="round"/>
<path fill-rule="evenodd" clip-rule="evenodd" d="M176 53.5464L167.262 68.6807H149.787L141.049 53.5464L149.787 38.4121H167.262L176 53.5464Z" stroke="#54BC89" stroke-width="1.5" stroke-linecap="square" stroke-linejoin="round"/>
<path fill-rule="evenodd" clip-rule="evenodd" d="M176 88.4947L167.262 103.629H149.787L141.049 88.4947L149.787 73.3604H167.262L176 88.4947Z" stroke="#54BC89" stroke-width="1.5" stroke-linecap="square" stroke-linejoin="round"/>
<path fill-rule="evenodd" clip-rule="evenodd" d="M35.9512 53.5464L27.2134 68.6807H9.73779L1 53.5464L9.73779 38.4121H27.2134L35.9512 53.5464Z" stroke="#54BC89" stroke-width="1.5" stroke-linecap="square" stroke-linejoin="round"/>
<path fill-rule="evenodd" clip-rule="evenodd" d="M35.9512 88.4947L27.2134 103.629H9.73779L1 88.4947L9.73779 73.3604H27.2134L35.9512 88.4947Z" stroke="#54BC89" stroke-width="1.5" stroke-linecap="square" stroke-linejoin="round"/>
<path d="M88.7124 35.9512C98.3639 35.9512 106.188 28.1271 106.188 18.4756C106.188 8.82409 98.3639 1 88.7124 1C79.0609 1 71.2368 8.82409 71.2368 18.4756C71.2368 28.1271 79.0609 35.9512 88.7124 35.9512Z" stroke="#54BC89" stroke-width="1.5" stroke-linecap="square" stroke-linejoin="round"/>
<path d="M53.7383 140.803C63.3898 140.803 71.2139 132.979 71.2139 123.327C71.2139 113.676 63.3898 105.852 53.7383 105.852C44.0868 105.852 36.2627 113.676 36.2627 123.327C36.2627 132.979 44.0868 140.803 53.7383 140.803Z" stroke="#54BC89" stroke-width="1.5" stroke-linecap="square" stroke-linejoin="round"/>
<path d="M123.641 140.803C133.293 140.803 141.117 132.979 141.117 123.327C141.117 113.676 133.293 105.852 123.641 105.852C113.99 105.852 106.166 113.676 106.166 123.327C106.166 132.979 113.99 140.803 123.641 140.803Z" stroke="#54BC89" stroke-width="1.5" stroke-linecap="square" stroke-linejoin="round"/>
<path fill-rule="evenodd" clip-rule="evenodd" d="M53.7388 70.8994C51.4439 70.8994 49.1714 71.3514 47.0512 72.2297C44.9309 73.1079 43.0044 74.3952 41.3817 76.0179C39.7589 77.6407 38.4717 79.5671 37.5934 81.6874C36.7152 83.8076 36.2632 86.0801 36.2632 88.375C36.265 92.8157 37.9574 97.0892 40.9964 100.327V117.676H49.734V105.381C51.0463 105.692 52.3902 105.849 53.7388 105.851C56.0337 105.851 58.3062 105.399 60.4264 104.52C62.5466 103.642 64.4732 102.355 66.0959 100.732C67.7187 99.1094 69.0059 97.1829 69.8842 95.0627C70.7624 92.9424 71.2144 90.67 71.2144 88.375C71.2144 86.0801 70.7624 83.8076 69.8842 81.6874C69.0059 79.5671 67.7187 77.6407 66.0959 76.0179C64.4732 74.3952 62.5466 73.1079 60.4264 72.2297C58.3062 71.3514 56.0337 70.8994 53.7388 70.8994Z" fill="#54BC89" fill-opacity="0.565854" stroke="#54BC89" stroke-width="2" stroke-linecap="square" stroke-linejoin="round"/>
<path fill-rule="evenodd" clip-rule="evenodd" d="M108.842 79.1338C107.106 81.9093 106.185 85.1173 106.184 88.3914C106.185 92.2606 107.472 96.0198 109.842 99.0783C112.212 102.137 115.53 104.321 119.277 105.289V117.66H128.005V105.289C131.751 104.321 135.07 102.137 137.44 99.0782C139.81 96.0197 141.096 92.2606 141.097 88.3914C141.094 85.1162 140.168 81.9081 138.428 79.1338H108.842Z" fill="#54BC89" fill-opacity="0.565854" stroke="#54BC89" stroke-width="2" stroke-linecap="square" stroke-linejoin="round"/>
<path fill-rule="evenodd" clip-rule="evenodd" d="M71.1465 18.6343L62.4087 33.7686H44.9331L36.1953 18.6343L44.9331 3.5H62.4087L71.1465 18.6343Z" stroke="#54BC89" stroke-width="1.5" stroke-linecap="square" stroke-linejoin="round"/>
<path fill-rule="evenodd" clip-rule="evenodd" d="M75.9471 23.9395V41.4769C72.908 44.7149 71.2156 48.9885 71.2139 53.4294C71.2139 55.7243 71.6659 57.9968 72.5441 60.117C73.4223 62.2373 74.7096 64.1637 76.3323 65.7865C77.9551 67.4092 79.8816 68.6965 82.0019 69.5748C84.1221 70.453 86.3945 70.905 88.6895 70.905C90.9844 70.905 93.2568 70.453 95.3771 69.5748C97.4973 68.6965 99.4238 67.4092 101.047 65.7865C102.669 64.1637 103.957 62.2373 104.835 60.117C105.713 57.9968 106.165 55.7243 106.165 53.4294C106.165 51.1345 105.713 48.862 104.835 46.7417C103.957 44.6215 102.669 42.6951 101.047 41.0723C99.4238 39.4495 97.4974 38.1622 95.3771 37.284C93.2569 36.4058 90.9844 35.9538 88.6895 35.9538C87.3409 35.9553 85.997 36.1129 84.6847 36.4234V23.9395H75.9471Z" fill="#54BC89" fill-opacity="0.565854" stroke="#54BC89" stroke-width="2" stroke-linecap="square" stroke-linejoin="round"/>
<path fill-rule="evenodd" clip-rule="evenodd" d="M62.694 38.6102C59.9155 36.8717 56.704 35.9496 53.4263 35.9492C43.7749 35.9495 35.951 43.7738 35.9512 53.4252C35.9515 63.0763 43.7752 70.9001 53.4263 70.9004C56.7051 70.9004 59.9167 69.9701 62.694 68.2273V38.6102Z" fill="#54BC89" fill-opacity="0.565854" stroke="#54BC89" stroke-width="2" stroke-linecap="square" stroke-linejoin="round"/>
<path fill-rule="evenodd" clip-rule="evenodd" d="M123.641 35.9541C119.006 35.9542 114.561 37.7956 111.284 41.073C108.007 44.3503 106.165 48.7953 106.166 53.4301C106.166 58.0648 108.007 62.5096 111.284 65.7868C114.561 69.064 119.006 70.9051 123.641 70.9053V35.9541Z" fill="#54BC89" fill-opacity="0.565854" stroke="#54BC89" stroke-width="2" stroke-linecap="square" stroke-linejoin="round"/>
</g>
<g opacity="0.5">
<path fill-rule="evenodd" clip-rule="evenodd" d="M141.049 18.6343L132.311 33.7686H114.835L106.098 18.6343L114.835 3.5H132.311L141.049 18.6343Z" stroke="#00A8F3" stroke-width="1.5" stroke-linecap="square" stroke-linejoin="round"/>
<path fill-rule="evenodd" clip-rule="evenodd" d="M106.098 123.48L97.3599 138.614H79.8843L71.1465 123.48L79.8843 108.346H97.3599L106.098 123.48Z" stroke="#00A8F3" stroke-width="1.5" stroke-linecap="square" stroke-linejoin="round"/>
<path d="M53.7383 70.9004C63.3898 70.9004 71.2139 63.0763 71.2139 53.4248C71.2139 43.7733 63.3898 35.9492 53.7383 35.9492C44.0868 35.9492 36.2627 43.7733 36.2627 53.4248C36.2627 63.0763 44.0868 70.9004 53.7383 70.9004Z" stroke="#00A8F3" stroke-width="1.5" stroke-linecap="square" stroke-linejoin="round"/>
<path d="M123.641 70.9004C133.293 70.9004 141.117 63.0763 141.117 53.4248C141.117 43.7733 133.293 35.9492 123.641 35.9492C113.99 35.9492 106.166 43.7733 106.166 53.4248C106.166 63.0763 113.99 70.9004 123.641 70.9004Z" stroke="#00A8F3" stroke-width="1.5" stroke-linecap="square" stroke-linejoin="round"/>
<path d="M88.6899 105.855C98.3414 105.855 106.166 98.0304 106.166 88.3789C106.166 78.7274 98.3414 70.9033 88.6899 70.9033C79.0384 70.9033 71.2144 78.7274 71.2144 88.3789C71.2144 98.0304 79.0384 105.855 88.6899 105.855Z" stroke="#00A8F3" stroke-width="1.5" stroke-linecap="square" stroke-linejoin="round"/>
<path d="M123.641 105.855C133.293 105.855 141.117 98.0304 141.117 88.3789C141.117 78.7274 133.293 70.9033 123.641 70.9033C113.99 70.9033 106.166 78.7274 106.166 88.3789C106.166 98.0304 113.99 105.855 123.641 105.855Z" stroke="#00A8F3" stroke-width="1.5" stroke-linecap="square" stroke-linejoin="round"/>
<path fill-rule="evenodd" clip-rule="evenodd" d="M97.9572 73.5644C95.1786 71.8258 91.9672 70.9037 88.6895 70.9033C79.038 70.9036 71.2142 78.7279 71.2144 88.3793C71.2146 98.0304 79.0384 105.854 88.6895 105.855C91.9683 105.847 95.1799 104.924 97.9572 103.182V73.5644Z" fill="#00A8F3" fill-opacity="0.465854" stroke="#00A8F3" stroke-width="2" stroke-linecap="square" stroke-linejoin="round"/>
<path fill-rule="evenodd" clip-rule="evenodd" d="M176 53.5464L167.262 68.6807H149.787L141.049 53.5464L149.787 38.4121H167.262L176 53.5464Z" stroke="#00A8F3" stroke-width="1.5" stroke-linecap="square" stroke-linejoin="round"/>
<path fill-rule="evenodd" clip-rule="evenodd" d="M176 88.4947L167.262 103.629H149.787L141.049 88.4947L149.787 73.3604H167.262L176 88.4947Z" stroke="#00A8F3" stroke-width="1.5" stroke-linecap="square" stroke-linejoin="round"/>
<path fill-rule="evenodd" clip-rule="evenodd" d="M35.9512 53.5464L27.2134 68.6807H9.73779L1 53.5464L9.73779 38.4121H27.2134L35.9512 53.5464Z" stroke="#00A8F3" stroke-width="1.5" stroke-linecap="square" stroke-linejoin="round"/>
<path fill-rule="evenodd" clip-rule="evenodd" d="M35.9512 88.4947L27.2134 103.629H9.73779L1 88.4947L9.73779 73.3604H27.2134L35.9512 88.4947Z" stroke="#00A8F3" stroke-width="1.5" stroke-linecap="square" stroke-linejoin="round"/>
<path d="M88.7124 35.9512C98.3639 35.9512 106.188 28.1271 106.188 18.4756C106.188 8.82409 98.3639 1 88.7124 1C79.0609 1 71.2368 8.82409 71.2368 18.4756C71.2368 28.1271 79.0609 35.9512 88.7124 35.9512Z" stroke="#00A8F3" stroke-width="1.5" stroke-linecap="square" stroke-linejoin="round"/>
<path d="M53.7383 140.803C63.3898 140.803 71.2139 132.979 71.2139 123.327C71.2139 113.676 63.3898 105.852 53.7383 105.852C44.0868 105.852 36.2627 113.676 36.2627 123.327C36.2627 132.979 44.0868 140.803 53.7383 140.803Z" stroke="#00A8F3" stroke-width="1.5" stroke-linecap="square" stroke-linejoin="round"/>
<path d="M123.641 140.803C133.293 140.803 141.117 132.979 141.117 123.327C141.117 113.676 133.293 105.852 123.641 105.852C113.99 105.852 106.166 113.676 106.166 123.327C106.166 132.979 113.99 140.803 123.641 140.803Z" stroke="#00A8F3" stroke-width="1.5" stroke-linecap="square" stroke-linejoin="round"/>
<path fill-rule="evenodd" clip-rule="evenodd" d="M53.7388 70.8994C51.4439 70.8994 49.1714 71.3514 47.0512 72.2297C44.9309 73.1079 43.0044 74.3952 41.3817 76.0179C39.7589 77.6407 38.4717 79.5671 37.5934 81.6874C36.7152 83.8076 36.2632 86.0801 36.2632 88.375C36.265 92.8157 37.9574 97.0892 40.9964 100.327V117.676H49.734V105.381C51.0463 105.692 52.3902 105.849 53.7388 105.851C56.0337 105.851 58.3062 105.399 60.4264 104.52C62.5466 103.642 64.4732 102.355 66.0959 100.732C67.7187 99.1094 69.0059 97.1829 69.8842 95.0627C70.7624 92.9424 71.2144 90.67 71.2144 88.375C71.2144 86.0801 70.7624 83.8076 69.8842 81.6874C69.0059 79.5671 67.7187 77.6407 66.0959 76.0179C64.4732 74.3952 62.5466 73.1079 60.4264 72.2297C58.3062 71.3514 56.0337 70.8994 53.7388 70.8994Z" fill="#00A8F3" fill-opacity="0.465854" stroke="#00A8F3" stroke-width="2" stroke-linecap="square" stroke-linejoin="round"/>
<path fill-rule="evenodd" clip-rule="evenodd" d="M108.842 79.1338C107.106 81.9093 106.185 85.1173 106.184 88.3914C106.185 92.2606 107.472 96.0198 109.842 99.0783C112.212 102.137 115.53 104.321 119.277 105.289V117.66H128.005V105.289C131.751 104.321 135.07 102.137 137.44 99.0782C139.81 96.0197 141.096 92.2606 141.097 88.3914C141.094 85.1162 140.168 81.9081 138.428 79.1338H108.842Z" fill="#00A8F3" fill-opacity="0.465854" stroke="#00A8F3" stroke-width="2" stroke-linecap="square" stroke-linejoin="round"/>
<path fill-rule="evenodd" clip-rule="evenodd" d="M71.1465 18.6343L62.4087 33.7686H44.9331L36.1953 18.6343L44.9331 3.5H62.4087L71.1465 18.6343Z" stroke="#00A8F3" stroke-width="1.5" stroke-linecap="square" stroke-linejoin="round"/>
<path fill-rule="evenodd" clip-rule="evenodd" d="M75.9471 23.9395V41.4769C72.908 44.7149 71.2156 48.9885 71.2139 53.4294C71.2139 55.7243 71.6659 57.9968 72.5441 60.117C73.4223 62.2373 74.7096 64.1637 76.3323 65.7865C77.9551 67.4092 79.8816 68.6965 82.0019 69.5748C84.1221 70.453 86.3945 70.905 88.6895 70.905C90.9844 70.905 93.2568 70.453 95.3771 69.5748C97.4973 68.6965 99.4238 67.4092 101.047 65.7865C102.669 64.1637 103.957 62.2373 104.835 60.117C105.713 57.9968 106.165 55.7243 106.165 53.4294C106.165 51.1345 105.713 48.862 104.835 46.7417C103.957 44.6215 102.669 42.6951 101.047 41.0723C99.4238 39.4495 97.4974 38.1622 95.3771 37.284C93.2569 36.4058 90.9844 35.9538 88.6895 35.9538C87.3409 35.9553 85.997 36.1129 84.6847 36.4234V23.9395H75.9471Z" fill="#00A8F3" fill-opacity="0.465854" stroke="#00A8F3" stroke-width="2" stroke-linecap="square" stroke-linejoin="round"/>
<path fill-rule="evenodd" clip-rule="evenodd" d="M62.694 38.6102C59.9155 36.8717 56.704 35.9496 53.4263 35.9492C43.7749 35.9495 35.951 43.7738 35.9512 53.4252C35.9515 63.0763 43.7752 70.9001 53.4263 70.9004C56.7051 70.9004 59.9167 69.9701 62.694 68.2273V38.6102Z" fill="#00A8F3" fill-opacity="0.465854" stroke="#00A8F3" stroke-width="2" stroke-linecap="square" stroke-linejoin="round"/>
<path fill-rule="evenodd" clip-rule="evenodd" d="M123.641 35.9541C119.006 35.9542 114.561 37.7956 111.284 41.073C108.007 44.3503 106.165 48.7953 106.166 53.4301C106.166 58.0648 108.007 62.5096 111.284 65.7868C114.561 69.064 119.006 70.9051 123.641 70.9053V35.9541Z" fill="#00A8F3" fill-opacity="0.465854" stroke="#00A8F3" stroke-width="2" stroke-linecap="square" stroke-linejoin="round"/>
</g>
</g>
</svg>
