<svg width="176" height="71" viewBox="0 0 176 71" fill="none" xmlns="http://www.w3.org/2000/svg">
<g opacity="0.16">
<g opacity="0.5">
<path fill-rule="evenodd" clip-rule="evenodd" d="M140.049 18.6343L131.311 33.7686H113.835L105.098 18.6343L113.835 3.5H131.311L140.049 18.6343Z" stroke="#54BC89" stroke-width="1.5" stroke-linecap="square" stroke-linejoin="round"/>
<path d="M52.7383 70.9004C62.3898 70.9004 70.2139 63.0763 70.2139 53.4248C70.2139 43.7733 62.3898 35.9492 52.7383 35.9492C43.0868 35.9492 35.2627 43.7733 35.2627 53.4248C35.2627 63.0763 43.0868 70.9004 52.7383 70.9004Z" stroke="#54BC89" stroke-width="1.5" stroke-linecap="square" stroke-linejoin="round"/>
<path d="M122.641 70.9004C132.293 70.9004 140.117 63.0763 140.117 53.4248C140.117 43.7733 132.293 35.9492 122.641 35.9492C112.99 35.9492 105.166 43.7733 105.166 53.4248C105.166 63.0763 112.99 70.9004 122.641 70.9004Z" stroke="#54BC89" stroke-width="1.5" stroke-linecap="square" stroke-linejoin="round"/>
<path d="M87.6899 105.854C97.3414 105.854 105.166 98.0294 105.166 88.3779C105.166 78.7264 97.3414 70.9023 87.6899 70.9023C78.0384 70.9023 70.2144 78.7264 70.2144 88.3779C70.2144 98.0294 78.0384 105.854 87.6899 105.854Z" stroke="#54BC89" stroke-width="1.5" stroke-linecap="square" stroke-linejoin="round"/>
<path d="M122.641 105.854C132.293 105.854 140.117 98.0294 140.117 88.3779C140.117 78.7264 132.293 70.9023 122.641 70.9023C112.99 70.9023 105.166 78.7264 105.166 88.3779C105.166 98.0294 112.99 105.854 122.641 105.854Z" stroke="#54BC89" stroke-width="1.5" stroke-linecap="square" stroke-linejoin="round"/>
<path fill-rule="evenodd" clip-rule="evenodd" d="M96.9572 73.5634C94.1786 71.8248 90.9672 70.9027 87.6895 70.9023C78.038 70.9026 70.2142 78.7269 70.2144 88.3784C70.2146 98.0295 78.0384 105.853 87.6895 105.854C90.9683 105.846 94.1799 104.923 96.9572 103.181V73.5634Z" fill="#54BC89" fill-opacity="0.565854" stroke="#54BC89" stroke-width="2" stroke-linecap="square" stroke-linejoin="round"/>
<path fill-rule="evenodd" clip-rule="evenodd" d="M175 53.5464L166.262 68.6807H148.787L140.049 53.5464L148.787 38.4121H166.262L175 53.5464Z" stroke="#54BC89" stroke-width="1.5" stroke-linecap="square" stroke-linejoin="round"/>
<path fill-rule="evenodd" clip-rule="evenodd" d="M34.9512 53.5464L26.2134 68.6807H8.73779L0 53.5464L8.73779 38.4121H26.2134L34.9512 53.5464Z" stroke="#54BC89" stroke-width="1.5" stroke-linecap="square" stroke-linejoin="round"/>
<path d="M87.7124 35.9512C97.3639 35.9512 105.188 28.1271 105.188 18.4756C105.188 8.82409 97.3639 1 87.7124 1C78.0609 1 70.2368 8.82409 70.2368 18.4756C70.2368 28.1271 78.0609 35.9512 87.7124 35.9512Z" stroke="#54BC89" stroke-width="1.5" stroke-linecap="square" stroke-linejoin="round"/>
<path fill-rule="evenodd" clip-rule="evenodd" d="M52.7388 70.9004C50.4439 70.9004 48.1714 71.3524 46.0512 72.2306C43.9309 73.1089 42.0044 74.3961 40.3817 76.0189C38.7589 77.6417 37.4717 79.5681 36.5934 81.6883C35.7152 83.8086 35.2632 86.0811 35.2632 88.376C35.265 92.8167 36.9574 97.0902 39.9964 100.328V117.677H48.734V105.382C50.0463 105.693 51.3902 105.85 52.7388 105.852C55.0337 105.852 57.3062 105.4 59.4264 104.521C61.5466 103.643 63.4732 102.356 65.0959 100.733C66.7187 99.1103 68.0059 97.1839 68.8842 95.0637C69.7624 92.9434 70.2144 90.6709 70.2144 88.376C70.2144 86.0811 69.7624 83.8086 68.8842 81.6883C68.0059 79.5681 66.7187 77.6417 65.0959 76.0189C63.4732 74.3961 61.5466 73.1089 59.4264 72.2306C57.3062 71.3524 55.0337 70.9004 52.7388 70.9004Z" fill="#54BC89" fill-opacity="0.565854" stroke="#54BC89" stroke-width="2" stroke-linecap="square" stroke-linejoin="round"/>
<path fill-rule="evenodd" clip-rule="evenodd" d="M70.1465 18.6343L61.4087 33.7686H43.9331L35.1953 18.6343L43.9331 3.5H61.4087L70.1465 18.6343Z" stroke="#54BC89" stroke-width="1.5" stroke-linecap="square" stroke-linejoin="round"/>
<path fill-rule="evenodd" clip-rule="evenodd" d="M74.9471 23.9395V41.4769C71.908 44.7149 70.2156 48.9885 70.2139 53.4294C70.2139 55.7243 70.6659 57.9968 71.5441 60.117C72.4223 62.2373 73.7096 64.1637 75.3323 65.7865C76.9551 67.4092 78.8816 68.6965 81.0019 69.5748C83.1221 70.453 85.3945 70.905 87.6895 70.905C89.9844 70.905 92.2568 70.453 94.3771 69.5748C96.4973 68.6965 98.4238 67.4092 100.047 65.7865C101.669 64.1637 102.957 62.2373 103.835 60.117C104.713 57.9968 105.165 55.7243 105.165 53.4294C105.165 51.1345 104.713 48.862 103.835 46.7417C102.957 44.6215 101.669 42.6951 100.047 41.0723C98.4238 39.4495 96.4974 38.1622 94.3771 37.284C92.2569 36.4058 89.9844 35.9538 87.6895 35.9538C86.3409 35.9553 84.997 36.1129 83.6847 36.4234V23.9395H74.9471Z" fill="#54BC89" fill-opacity="0.565854" stroke="#54BC89" stroke-width="2" stroke-linecap="square" stroke-linejoin="round"/>
<path fill-rule="evenodd" clip-rule="evenodd" d="M61.694 38.6102C58.9155 36.8717 55.704 35.9496 52.4263 35.9492C42.7749 35.9495 34.951 43.7738 34.9512 53.4252C34.9515 63.0763 42.7752 70.9001 52.4263 70.9004C55.7051 70.9004 58.9167 69.9701 61.694 68.2273V38.6102Z" fill="#54BC89" fill-opacity="0.565854" stroke="#54BC89" stroke-width="2" stroke-linecap="square" stroke-linejoin="round"/>
<path fill-rule="evenodd" clip-rule="evenodd" d="M122.641 35.9531C118.006 35.9533 113.561 37.7946 110.284 41.072C107.007 44.3494 105.165 48.7943 105.166 53.4291C105.166 58.0638 107.007 62.5086 110.284 65.7858C113.561 69.063 118.006 70.9042 122.641 70.9043V35.9531Z" fill="#54BC89" fill-opacity="0.565854" stroke="#54BC89" stroke-width="2" stroke-linecap="square" stroke-linejoin="round"/>
</g>
<g opacity="0.5">
<path fill-rule="evenodd" clip-rule="evenodd" d="M140.049 18.6343L131.311 33.7686H113.835L105.098 18.6343L113.835 3.5H131.311L140.049 18.6343Z" stroke="#00A8F3" stroke-width="1.5" stroke-linecap="square" stroke-linejoin="round"/>
<path d="M52.7383 70.9004C62.3898 70.9004 70.2139 63.0763 70.2139 53.4248C70.2139 43.7733 62.3898 35.9492 52.7383 35.9492C43.0868 35.9492 35.2627 43.7733 35.2627 53.4248C35.2627 63.0763 43.0868 70.9004 52.7383 70.9004Z" stroke="#00A8F3" stroke-width="1.5" stroke-linecap="square" stroke-linejoin="round"/>
<path d="M122.641 70.9004C132.293 70.9004 140.117 63.0763 140.117 53.4248C140.117 43.7733 132.293 35.9492 122.641 35.9492C112.99 35.9492 105.166 43.7733 105.166 53.4248C105.166 63.0763 112.99 70.9004 122.641 70.9004Z" stroke="#00A8F3" stroke-width="1.5" stroke-linecap="square" stroke-linejoin="round"/>
<path d="M87.6899 105.854C97.3414 105.854 105.166 98.0294 105.166 88.3779C105.166 78.7264 97.3414 70.9023 87.6899 70.9023C78.0384 70.9023 70.2144 78.7264 70.2144 88.3779C70.2144 98.0294 78.0384 105.854 87.6899 105.854Z" stroke="#00A8F3" stroke-width="1.5" stroke-linecap="square" stroke-linejoin="round"/>
<path d="M122.641 105.854C132.293 105.854 140.117 98.0294 140.117 88.3779C140.117 78.7264 132.293 70.9023 122.641 70.9023C112.99 70.9023 105.166 78.7264 105.166 88.3779C105.166 98.0294 112.99 105.854 122.641 105.854Z" stroke="#00A8F3" stroke-width="1.5" stroke-linecap="square" stroke-linejoin="round"/>
<path fill-rule="evenodd" clip-rule="evenodd" d="M96.9572 73.5634C94.1786 71.8248 90.9672 70.9027 87.6895 70.9023C78.038 70.9026 70.2142 78.7269 70.2144 88.3784C70.2146 98.0295 78.0384 105.853 87.6895 105.854C90.9683 105.846 94.1799 104.923 96.9572 103.181V73.5634Z" fill="#00A8F3" fill-opacity="0.465854" stroke="#00A8F3" stroke-width="2" stroke-linecap="square" stroke-linejoin="round"/>
<path fill-rule="evenodd" clip-rule="evenodd" d="M175 53.5464L166.262 68.6807H148.787L140.049 53.5464L148.787 38.4121H166.262L175 53.5464Z" stroke="#00A8F3" stroke-width="1.5" stroke-linecap="square" stroke-linejoin="round"/>
<path fill-rule="evenodd" clip-rule="evenodd" d="M34.9512 53.5464L26.2134 68.6807H8.73779L0 53.5464L8.73779 38.4121H26.2134L34.9512 53.5464Z" stroke="#00A8F3" stroke-width="1.5" stroke-linecap="square" stroke-linejoin="round"/>
<path d="M87.7124 35.9512C97.3639 35.9512 105.188 28.1271 105.188 18.4756C105.188 8.82409 97.3639 1 87.7124 1C78.0609 1 70.2368 8.82409 70.2368 18.4756C70.2368 28.1271 78.0609 35.9512 87.7124 35.9512Z" stroke="#00A8F3" stroke-width="1.5" stroke-linecap="square" stroke-linejoin="round"/>
<path fill-rule="evenodd" clip-rule="evenodd" d="M52.7388 70.9004C50.4439 70.9004 48.1714 71.3524 46.0512 72.2306C43.9309 73.1089 42.0044 74.3961 40.3817 76.0189C38.7589 77.6417 37.4717 79.5681 36.5934 81.6883C35.7152 83.8086 35.2632 86.0811 35.2632 88.376C35.265 92.8167 36.9574 97.0902 39.9964 100.328V117.677H48.734V105.382C50.0463 105.693 51.3902 105.85 52.7388 105.852C55.0337 105.852 57.3062 105.4 59.4264 104.521C61.5466 103.643 63.4732 102.356 65.0959 100.733C66.7187 99.1103 68.0059 97.1839 68.8842 95.0637C69.7624 92.9434 70.2144 90.6709 70.2144 88.376C70.2144 86.0811 69.7624 83.8086 68.8842 81.6883C68.0059 79.5681 66.7187 77.6417 65.0959 76.0189C63.4732 74.3961 61.5466 73.1089 59.4264 72.2306C57.3062 71.3524 55.0337 70.9004 52.7388 70.9004Z" fill="#00A8F3" fill-opacity="0.465854" stroke="#00A8F3" stroke-width="2" stroke-linecap="square" stroke-linejoin="round"/>
<path fill-rule="evenodd" clip-rule="evenodd" d="M70.1465 18.6343L61.4087 33.7686H43.9331L35.1953 18.6343L43.9331 3.5H61.4087L70.1465 18.6343Z" stroke="#00A8F3" stroke-width="1.5" stroke-linecap="square" stroke-linejoin="round"/>
<path fill-rule="evenodd" clip-rule="evenodd" d="M74.9471 23.9395V41.4769C71.908 44.7149 70.2156 48.9885 70.2139 53.4294C70.2139 55.7243 70.6659 57.9968 71.5441 60.117C72.4223 62.2373 73.7096 64.1637 75.3323 65.7865C76.9551 67.4092 78.8816 68.6965 81.0019 69.5748C83.1221 70.453 85.3945 70.905 87.6895 70.905C89.9844 70.905 92.2568 70.453 94.3771 69.5748C96.4973 68.6965 98.4238 67.4092 100.047 65.7865C101.669 64.1637 102.957 62.2373 103.835 60.117C104.713 57.9968 105.165 55.7243 105.165 53.4294C105.165 51.1345 104.713 48.862 103.835 46.7417C102.957 44.6215 101.669 42.6951 100.047 41.0723C98.4238 39.4495 96.4974 38.1622 94.3771 37.284C92.2569 36.4058 89.9844 35.9538 87.6895 35.9538C86.3409 35.9553 84.997 36.1129 83.6847 36.4234V23.9395H74.9471Z" fill="#00A8F3" fill-opacity="0.465854" stroke="#00A8F3" stroke-width="2" stroke-linecap="square" stroke-linejoin="round"/>
<path fill-rule="evenodd" clip-rule="evenodd" d="M61.694 38.6102C58.9155 36.8717 55.704 35.9496 52.4263 35.9492C42.7749 35.9495 34.951 43.7738 34.9512 53.4252C34.9515 63.0763 42.7752 70.9001 52.4263 70.9004C55.7051 70.9004 58.9167 69.9701 61.694 68.2273V38.6102Z" fill="#00A8F3" fill-opacity="0.465854" stroke="#00A8F3" stroke-width="2" stroke-linecap="square" stroke-linejoin="round"/>
<path fill-rule="evenodd" clip-rule="evenodd" d="M122.641 35.9531C118.006 35.9533 113.561 37.7946 110.284 41.072C107.007 44.3494 105.165 48.7943 105.166 53.4291C105.166 58.0638 107.007 62.5086 110.284 65.7858C113.561 69.063 118.006 70.9042 122.641 70.9043V35.9531Z" fill="#00A8F3" fill-opacity="0.465854" stroke="#00A8F3" stroke-width="2" stroke-linecap="square" stroke-linejoin="round"/>
</g>
</g>
</svg>
