<svg width="164" height="95" viewBox="0 0 164 95" fill="none" xmlns="http://www.w3.org/2000/svg">
<g opacity="0.16">
<g opacity="0.5">
<path fill-rule="evenodd" clip-rule="evenodd" d="M141.049 18.6343L132.311 33.7686H114.835L106.098 18.6343L114.835 3.5H132.311L141.049 18.6343Z" stroke="#54BC89" stroke-width="1.5" stroke-linecap="square" stroke-linejoin="round"/>
<path d="M53.7383 70.9004C63.3898 70.9004 71.2139 63.0763 71.2139 53.4248C71.2139 43.7733 63.3898 35.9492 53.7383 35.9492C44.0868 35.9492 36.2627 43.7733 36.2627 53.4248C36.2627 63.0763 44.0868 70.9004 53.7383 70.9004Z" stroke="#54BC89" stroke-width="1.5" stroke-linecap="square" stroke-linejoin="round"/>
<path d="M123.641 70.9004C133.293 70.9004 141.117 63.0763 141.117 53.4248C141.117 43.7733 133.293 35.9492 123.641 35.9492C113.99 35.9492 106.166 43.7733 106.166 53.4248C106.166 63.0763 113.99 70.9004 123.641 70.9004Z" stroke="#54BC89" stroke-width="1.5" stroke-linecap="square" stroke-linejoin="round"/>
<path d="M88.6899 105.854C98.3414 105.854 106.166 98.0294 106.166 88.3779C106.166 78.7264 98.3414 70.9023 88.6899 70.9023C79.0384 70.9023 71.2144 78.7264 71.2144 88.3779C71.2144 98.0294 79.0384 105.854 88.6899 105.854Z" stroke="#54BC89" stroke-width="1.5" stroke-linecap="square" stroke-linejoin="round"/>
<path d="M123.641 105.854C133.293 105.854 141.117 98.0294 141.117 88.3779C141.117 78.7264 133.293 70.9023 123.641 70.9023C113.99 70.9023 106.166 78.7264 106.166 88.3779C106.166 98.0294 113.99 105.854 123.641 105.854Z" stroke="#54BC89" stroke-width="1.5" stroke-linecap="square" stroke-linejoin="round"/>
<path fill-rule="evenodd" clip-rule="evenodd" d="M97.9572 73.5634C95.1786 71.8248 91.9672 70.9027 88.6895 70.9023C79.038 70.9026 71.2142 78.7269 71.2144 88.3784C71.2146 98.0295 79.0384 105.853 88.6895 105.854C91.9683 105.846 95.1799 104.923 97.9572 103.181V73.5634Z" fill="#54BC89" fill-opacity="0.565854" stroke="#54BC89" stroke-width="2" stroke-linecap="square" stroke-linejoin="round"/>
<path fill-rule="evenodd" clip-rule="evenodd" d="M176 53.5464L167.262 68.6807H149.787L141.049 53.5464L149.787 38.4121H167.262L176 53.5464Z" stroke="#54BC89" stroke-width="1.5" stroke-linecap="square" stroke-linejoin="round"/>
<path fill-rule="evenodd" clip-rule="evenodd" d="M176 88.4937L167.262 103.628H149.787L141.049 88.4937L149.787 73.3594H167.262L176 88.4937Z" stroke="#54BC89" stroke-width="1.5" stroke-linecap="square" stroke-linejoin="round"/>
<path fill-rule="evenodd" clip-rule="evenodd" d="M35.9512 53.5464L27.2134 68.6807H9.73779L1 53.5464L9.73779 38.4121H27.2134L35.9512 53.5464Z" stroke="#54BC89" stroke-width="1.5" stroke-linecap="square" stroke-linejoin="round"/>
<path fill-rule="evenodd" clip-rule="evenodd" d="M35.9512 88.4937L27.2134 103.628H9.73779L1 88.4937L9.73779 73.3594H27.2134L35.9512 88.4937Z" stroke="#54BC89" stroke-width="1.5" stroke-linecap="square" stroke-linejoin="round"/>
<path d="M88.7124 35.9512C98.3639 35.9512 106.188 28.1271 106.188 18.4756C106.188 8.82409 98.3639 1 88.7124 1C79.0609 1 71.2368 8.82409 71.2368 18.4756C71.2368 28.1271 79.0609 35.9512 88.7124 35.9512Z" stroke="#54BC89" stroke-width="1.5" stroke-linecap="square" stroke-linejoin="round"/>
<path fill-rule="evenodd" clip-rule="evenodd" d="M53.7388 70.9004C51.4439 70.9004 49.1714 71.3524 47.0512 72.2306C44.9309 73.1089 43.0044 74.3961 41.3817 76.0189C39.7589 77.6417 38.4717 79.5681 37.5934 81.6883C36.7152 83.8086 36.2632 86.0811 36.2632 88.376C36.265 92.8167 37.9574 97.0902 40.9964 100.328V117.677H49.734V105.382C51.0463 105.693 52.3902 105.85 53.7388 105.852C56.0337 105.852 58.3062 105.4 60.4264 104.521C62.5466 103.643 64.4732 102.356 66.0959 100.733C67.7187 99.1103 69.0059 97.1839 69.8842 95.0637C70.7624 92.9434 71.2144 90.6709 71.2144 88.376C71.2144 86.0811 70.7624 83.8086 69.8842 81.6883C69.0059 79.5681 67.7187 77.6417 66.0959 76.0189C64.4732 74.3961 62.5466 73.1089 60.4264 72.2306C58.3062 71.3524 56.0337 70.9004 53.7388 70.9004Z" fill="#54BC89" fill-opacity="0.565854" stroke="#54BC89" stroke-width="2" stroke-linecap="square" stroke-linejoin="round"/>
<path fill-rule="evenodd" clip-rule="evenodd" d="M108.842 79.1328C107.106 81.9083 106.185 85.1163 106.184 88.3904C106.185 92.2596 107.472 96.0188 109.842 99.0773C112.212 102.136 115.53 104.32 119.277 105.288V117.659H128.005V105.288C131.751 104.32 135.07 102.136 137.44 99.0772C139.81 96.0187 141.096 92.2596 141.097 88.3904C141.094 85.1152 140.168 81.9071 138.428 79.1328H108.842Z" fill="#54BC89" fill-opacity="0.565854" stroke="#54BC89" stroke-width="2" stroke-linecap="square" stroke-linejoin="round"/>
<path fill-rule="evenodd" clip-rule="evenodd" d="M71.1465 18.6343L62.4087 33.7686H44.9331L36.1953 18.6343L44.9331 3.5H62.4087L71.1465 18.6343Z" stroke="#54BC89" stroke-width="1.5" stroke-linecap="square" stroke-linejoin="round"/>
<path fill-rule="evenodd" clip-rule="evenodd" d="M75.9471 23.9395V41.4769C72.908 44.7149 71.2156 48.9885 71.2139 53.4294C71.2139 55.7243 71.6659 57.9968 72.5441 60.117C73.4223 62.2373 74.7096 64.1637 76.3323 65.7865C77.9551 67.4092 79.8816 68.6965 82.0019 69.5748C84.1221 70.453 86.3945 70.905 88.6895 70.905C90.9844 70.905 93.2568 70.453 95.3771 69.5748C97.4973 68.6965 99.4238 67.4092 101.047 65.7865C102.669 64.1637 103.957 62.2373 104.835 60.117C105.713 57.9968 106.165 55.7243 106.165 53.4294C106.165 51.1345 105.713 48.862 104.835 46.7417C103.957 44.6215 102.669 42.6951 101.047 41.0723C99.4238 39.4495 97.4974 38.1622 95.3771 37.284C93.2569 36.4058 90.9844 35.9538 88.6895 35.9538C87.3409 35.9553 85.997 36.1129 84.6847 36.4234V23.9395H75.9471Z" fill="#54BC89" fill-opacity="0.565854" stroke="#54BC89" stroke-width="2" stroke-linecap="square" stroke-linejoin="round"/>
<path fill-rule="evenodd" clip-rule="evenodd" d="M62.694 38.6102C59.9155 36.8717 56.704 35.9496 53.4263 35.9492C43.7749 35.9495 35.951 43.7738 35.9512 53.4252C35.9515 63.0763 43.7752 70.9001 53.4263 70.9004C56.7051 70.9004 59.9167 69.9701 62.694 68.2273V38.6102Z" fill="#54BC89" fill-opacity="0.565854" stroke="#54BC89" stroke-width="2" stroke-linecap="square" stroke-linejoin="round"/>
<path fill-rule="evenodd" clip-rule="evenodd" d="M123.641 35.9531C119.006 35.9533 114.561 37.7946 111.284 41.072C108.007 44.3494 106.165 48.7943 106.166 53.4291C106.166 58.0638 108.007 62.5086 111.284 65.7858C114.561 69.063 119.006 70.9042 123.641 70.9043V35.9531Z" fill="#54BC89" fill-opacity="0.565854" stroke="#54BC89" stroke-width="2" stroke-linecap="square" stroke-linejoin="round"/>
</g>
<g opacity="0.5">
<path fill-rule="evenodd" clip-rule="evenodd" d="M141.049 18.6343L132.311 33.7686H114.835L106.098 18.6343L114.835 3.5H132.311L141.049 18.6343Z" stroke="#00A8F3" stroke-width="1.5" stroke-linecap="square" stroke-linejoin="round"/>
<path d="M53.7383 70.9004C63.3898 70.9004 71.2139 63.0763 71.2139 53.4248C71.2139 43.7733 63.3898 35.9492 53.7383 35.9492C44.0868 35.9492 36.2627 43.7733 36.2627 53.4248C36.2627 63.0763 44.0868 70.9004 53.7383 70.9004Z" stroke="#00A8F3" stroke-width="1.5" stroke-linecap="square" stroke-linejoin="round"/>
<path d="M123.641 70.9004C133.293 70.9004 141.117 63.0763 141.117 53.4248C141.117 43.7733 133.293 35.9492 123.641 35.9492C113.99 35.9492 106.166 43.7733 106.166 53.4248C106.166 63.0763 113.99 70.9004 123.641 70.9004Z" stroke="#00A8F3" stroke-width="1.5" stroke-linecap="square" stroke-linejoin="round"/>
<path d="M88.6899 105.854C98.3414 105.854 106.166 98.0294 106.166 88.3779C106.166 78.7264 98.3414 70.9023 88.6899 70.9023C79.0384 70.9023 71.2144 78.7264 71.2144 88.3779C71.2144 98.0294 79.0384 105.854 88.6899 105.854Z" stroke="#00A8F3" stroke-width="1.5" stroke-linecap="square" stroke-linejoin="round"/>
<path d="M123.641 105.854C133.293 105.854 141.117 98.0294 141.117 88.3779C141.117 78.7264 133.293 70.9023 123.641 70.9023C113.99 70.9023 106.166 78.7264 106.166 88.3779C106.166 98.0294 113.99 105.854 123.641 105.854Z" stroke="#00A8F3" stroke-width="1.5" stroke-linecap="square" stroke-linejoin="round"/>
<path fill-rule="evenodd" clip-rule="evenodd" d="M97.9572 73.5634C95.1786 71.8248 91.9672 70.9027 88.6895 70.9023C79.038 70.9026 71.2142 78.7269 71.2144 88.3784C71.2146 98.0295 79.0384 105.853 88.6895 105.854C91.9683 105.846 95.1799 104.923 97.9572 103.181V73.5634Z" fill="#00A8F3" fill-opacity="0.465854" stroke="#00A8F3" stroke-width="2" stroke-linecap="square" stroke-linejoin="round"/>
<path fill-rule="evenodd" clip-rule="evenodd" d="M176 53.5464L167.262 68.6807H149.787L141.049 53.5464L149.787 38.4121H167.262L176 53.5464Z" stroke="#00A8F3" stroke-width="1.5" stroke-linecap="square" stroke-linejoin="round"/>
<path fill-rule="evenodd" clip-rule="evenodd" d="M176 88.4937L167.262 103.628H149.787L141.049 88.4937L149.787 73.3594H167.262L176 88.4937Z" stroke="#00A8F3" stroke-width="1.5" stroke-linecap="square" stroke-linejoin="round"/>
<path fill-rule="evenodd" clip-rule="evenodd" d="M35.9512 53.5464L27.2134 68.6807H9.73779L1 53.5464L9.73779 38.4121H27.2134L35.9512 53.5464Z" stroke="#00A8F3" stroke-width="1.5" stroke-linecap="square" stroke-linejoin="round"/>
<path fill-rule="evenodd" clip-rule="evenodd" d="M35.9512 88.4937L27.2134 103.628H9.73779L1 88.4937L9.73779 73.3594H27.2134L35.9512 88.4937Z" stroke="#00A8F3" stroke-width="1.5" stroke-linecap="square" stroke-linejoin="round"/>
<path d="M88.7124 35.9512C98.3639 35.9512 106.188 28.1271 106.188 18.4756C106.188 8.82409 98.3639 1 88.7124 1C79.0609 1 71.2368 8.82409 71.2368 18.4756C71.2368 28.1271 79.0609 35.9512 88.7124 35.9512Z" stroke="#00A8F3" stroke-width="1.5" stroke-linecap="square" stroke-linejoin="round"/>
<path fill-rule="evenodd" clip-rule="evenodd" d="M53.7388 70.9004C51.4439 70.9004 49.1714 71.3524 47.0512 72.2306C44.9309 73.1089 43.0044 74.3961 41.3817 76.0189C39.7589 77.6417 38.4717 79.5681 37.5934 81.6883C36.7152 83.8086 36.2632 86.0811 36.2632 88.376C36.265 92.8167 37.9574 97.0902 40.9964 100.328V117.677H49.734V105.382C51.0463 105.693 52.3902 105.85 53.7388 105.852C56.0337 105.852 58.3062 105.4 60.4264 104.521C62.5466 103.643 64.4732 102.356 66.0959 100.733C67.7187 99.1103 69.0059 97.1839 69.8842 95.0637C70.7624 92.9434 71.2144 90.6709 71.2144 88.376C71.2144 86.0811 70.7624 83.8086 69.8842 81.6883C69.0059 79.5681 67.7187 77.6417 66.0959 76.0189C64.4732 74.3961 62.5466 73.1089 60.4264 72.2306C58.3062 71.3524 56.0337 70.9004 53.7388 70.9004Z" fill="#00A8F3" fill-opacity="0.465854" stroke="#00A8F3" stroke-width="2" stroke-linecap="square" stroke-linejoin="round"/>
<path fill-rule="evenodd" clip-rule="evenodd" d="M108.842 79.1328C107.106 81.9083 106.185 85.1163 106.184 88.3904C106.185 92.2596 107.472 96.0188 109.842 99.0773C112.212 102.136 115.53 104.32 119.277 105.288V117.659H128.005V105.288C131.751 104.32 135.07 102.136 137.44 99.0772C139.81 96.0187 141.096 92.2596 141.097 88.3904C141.094 85.1152 140.168 81.9071 138.428 79.1328H108.842Z" fill="#00A8F3" fill-opacity="0.465854" stroke="#00A8F3" stroke-width="2" stroke-linecap="square" stroke-linejoin="round"/>
<path fill-rule="evenodd" clip-rule="evenodd" d="M71.1465 18.6343L62.4087 33.7686H44.9331L36.1953 18.6343L44.9331 3.5H62.4087L71.1465 18.6343Z" stroke="#00A8F3" stroke-width="1.5" stroke-linecap="square" stroke-linejoin="round"/>
<path fill-rule="evenodd" clip-rule="evenodd" d="M75.9471 23.9395V41.4769C72.908 44.7149 71.2156 48.9885 71.2139 53.4294C71.2139 55.7243 71.6659 57.9968 72.5441 60.117C73.4223 62.2373 74.7096 64.1637 76.3323 65.7865C77.9551 67.4092 79.8816 68.6965 82.0019 69.5748C84.1221 70.453 86.3945 70.905 88.6895 70.905C90.9844 70.905 93.2568 70.453 95.3771 69.5748C97.4973 68.6965 99.4238 67.4092 101.047 65.7865C102.669 64.1637 103.957 62.2373 104.835 60.117C105.713 57.9968 106.165 55.7243 106.165 53.4294C106.165 51.1345 105.713 48.862 104.835 46.7417C103.957 44.6215 102.669 42.6951 101.047 41.0723C99.4238 39.4495 97.4974 38.1622 95.3771 37.284C93.2569 36.4058 90.9844 35.9538 88.6895 35.9538C87.3409 35.9553 85.997 36.1129 84.6847 36.4234V23.9395H75.9471Z" fill="#00A8F3" fill-opacity="0.465854" stroke="#00A8F3" stroke-width="2" stroke-linecap="square" stroke-linejoin="round"/>
<path fill-rule="evenodd" clip-rule="evenodd" d="M62.694 38.6102C59.9155 36.8717 56.704 35.9496 53.4263 35.9492C43.7749 35.9495 35.951 43.7738 35.9512 53.4252C35.9515 63.0763 43.7752 70.9001 53.4263 70.9004C56.7051 70.9004 59.9167 69.9701 62.694 68.2273V38.6102Z" fill="#00A8F3" fill-opacity="0.465854" stroke="#00A8F3" stroke-width="2" stroke-linecap="square" stroke-linejoin="round"/>
<path fill-rule="evenodd" clip-rule="evenodd" d="M123.641 35.9531C119.006 35.9533 114.561 37.7946 111.284 41.072C108.007 44.3494 106.165 48.7943 106.166 53.4291C106.166 58.0638 108.007 62.5086 111.284 65.7858C114.561 69.063 119.006 70.9042 123.641 70.9043V35.9531Z" fill="#00A8F3" fill-opacity="0.465854" stroke="#00A8F3" stroke-width="2" stroke-linecap="square" stroke-linejoin="round"/>
</g>
</g>
</svg>
