<svg width="40" height="40" viewBox="0 0 40 40" fill="none" xmlns="http://www.w3.org/2000/svg">
<path d="M17 29.5L36 33L24 37L4 33.5L17 29.5Z" fill="#CC8000"/>
<ellipse cx="19" cy="32.7202" rx="4" ry="2" fill="#875300"/>
<path fill-rule="evenodd" clip-rule="evenodd" d="M19 32.9706L27.4853 24.4853C32.1716 19.799 32.1716 12.201 27.4853 7.51472C22.799 2.82843 15.201 2.82843 10.5147 7.51472C5.82843 12.201 5.82843 19.799 10.5147 24.4853L19 32.9706ZM19.002 21.0005C21.7634 21.0005 24.002 18.7619 24.002 16.0005C24.002 13.2391 21.7634 11.0005 19.002 11.0005C16.2405 11.0005 14.002 13.2391 14.002 16.0005C14.002 18.7619 16.2405 21.0005 19.002 21.0005Z" fill="#00658D"/>
</svg>
