<svg width="40" height="40" viewBox="0 0 40 40" fill="none" xmlns="http://www.w3.org/2000/svg">
<path fill-rule="evenodd" clip-rule="evenodd" d="M16.0892 25.8023C16.9508 23.5049 17.5007 20.2753 17.5007 16.6668C17.5007 13.0584 16.9508 9.82871 16.0892 7.53134C15.6573 6.37958 15.1631 5.5054 14.6567 4.93413C14.1493 4.3619 13.7004 4.16683 13.334 4.16683C12.9675 4.16683 12.5187 4.3619 12.0113 4.93413C11.5048 5.5054 11.0106 6.37958 10.5787 7.53134C9.71721 9.82871 9.16732 13.0584 9.16732 16.6668C9.16732 20.2753 9.71721 23.5049 10.5787 25.8023C11.0106 26.9541 11.5048 27.8283 12.0113 28.3995C12.5187 28.9718 12.9675 29.1668 13.334 29.1668C13.7004 29.1668 14.1493 28.9718 14.6567 28.3995C15.1631 27.8283 15.6573 26.9541 16.0892 25.8023ZM13.334 30.0002C13.9176 30.0002 14.4779 29.7335 14.9986 29.2434L31.6664 21.6671C34.4278 21.6671 36.6664 19.4286 36.6664 16.6671C36.6664 13.9057 34.4278 11.6671 31.6664 11.6671L14.9999 4.09146C14.4788 3.60058 13.9181 3.3335 13.334 3.3335C10.5726 3.3335 8.33398 9.30303 8.33398 16.6668C8.33398 24.0306 10.5726 30.0002 13.334 30.0002ZM29.0762 19.1829L17.3809 24.499C17.9804 22.3 18.334 19.5935 18.334 16.6668C18.334 13.7404 17.9804 11.0342 17.381 8.83534L29.0762 14.1514C29.1358 14.9633 29.1673 15.8044 29.1673 16.6672C29.1673 17.5299 29.1358 18.371 29.0762 19.1829ZM29.9375 18.7915L30.9443 18.3338H31.6664C32.5868 18.3338 33.333 17.5876 33.333 16.6671C33.333 15.7467 32.5868 15.0005 31.6664 15.0005H30.9443L29.9375 14.5429C29.979 15.2346 30.0006 15.9442 30.0006 16.6672C30.0006 17.3901 29.979 18.0997 29.9375 18.7915ZM31.6673 23.3335L26.6673 25.6062V36.6668H31.6673V23.3335ZM11.6673 16.6668C11.6673 15.7464 12.4135 15.0002 13.334 15.0002H16.6673V18.3335H13.334C12.4135 18.3335 11.6673 17.5873 11.6673 16.6668ZM6.66732 16.6668H3.33398V17.5002H6.66732V16.6668ZM4.59375 10.6341L7.1898 12.725L6.66709 13.374L4.07104 11.2831L4.59375 10.6341ZM6.47836 20.6691L4.18034 23.0837L4.78398 23.6582L7.08201 21.2436L6.47836 20.6691Z" fill="#FFB85D"/>
</svg>
