<svg width="24" height="24" viewBox="0 0 24 24" fill="none" xmlns="http://www.w3.org/2000/svg">
<path fill-rule="evenodd" clip-rule="evenodd" d="M8.55939 14.0299C9.32569 14.0299 10.0537 13.8662 10.7105 13.5719L13.3666 10.9153C13.6608 10.2587 13.8243 9.53094 13.8243 8.76496C13.8243 5.8572 11.4671 3.5 8.55939 3.5C5.65164 3.5 3.29443 5.8572 3.29443 8.76496C3.29443 11.6727 5.65164 14.0299 8.55939 14.0299ZM8.55939 14.5299C9.02529 14.5299 9.47829 14.4746 9.91218 14.3703L9.79656 14.4859C9.60132 14.6812 9.60134 14.9978 9.79662 15.193C9.9919 15.3883 10.3085 15.3883 10.5037 15.193L15.2295 10.4665L19.956 15.193C20.1513 15.3883 20.4679 15.3883 20.6632 15.193C20.8584 14.9978 20.8584 14.6812 20.6631 14.4859L19.2003 13.0231V10.7782C19.2003 10.5021 18.9765 10.2782 18.7003 10.2782C18.4242 10.2782 18.2003 10.5021 18.2003 10.7782V12.0231L15.5845 9.40731C15.4013 9.22406 15.1112 9.21279 14.9148 9.3735C14.8967 9.38719 14.8794 9.40227 14.8629 9.41873L14.165 10.1168C14.2692 9.68321 14.3243 9.23053 14.3243 8.76496C14.3243 5.58106 11.7433 3 8.55939 3C5.37549 3 2.79443 5.58106 2.79443 8.76496C2.79443 11.9489 5.37549 14.5299 8.55939 14.5299ZM20.059 16.1094C20.059 15.8332 19.8352 15.6094 19.559 15.6094C19.2829 15.6094 19.059 15.8332 19.059 16.1094V19.9999H18.9579H11.4004L11.4004 16.1094C11.4004 15.8332 11.1766 15.6094 10.9004 15.6094C10.6243 15.6094 10.4004 15.8332 10.4004 16.1094L10.4004 20.5C10.4004 20.7239 10.5476 20.9135 10.7506 20.9771V20.9999H10.8952L10.9004 21L10.9056 20.9999H11.2506H18.9579H19.4579V20.9897C19.4905 20.9964 19.5244 21 19.559 21C19.8352 21 20.059 20.7761 20.059 20.5V16.1094ZM16.2589 15.6477C16.2589 15.1315 15.7982 14.713 15.2299 14.713C14.6615 14.713 14.2008 15.1315 14.2008 15.6477V18.044C14.2008 18.5602 14.6615 18.9787 15.2299 18.9787C15.7982 18.9787 16.2589 18.5602 16.2589 18.044V15.6477ZM5.46723 7.7627C5.00019 7.7627 4.62158 8.21144 4.62158 8.76499C4.62158 9.31855 5.00019 9.76729 5.46723 9.76729H11.6515C12.1186 9.76729 12.4972 9.31855 12.4972 8.76499C12.4972 8.21144 12.1186 7.7627 11.6515 7.7627H5.46723Z" fill="#001E2E"/>
</svg>
