<svg width="32" height="32" viewBox="0 0 32 32" fill="none" xmlns="http://www.w3.org/2000/svg">
<path fill-rule="evenodd" clip-rule="evenodd" d="M11.4127 18.7066C12.4344 18.7066 13.4052 18.4883 14.2808 18.0958L17.8224 14.5537C18.2145 13.6783 18.4326 12.7079 18.4326 11.6866C18.4326 7.8096 15.2897 4.66667 11.4127 4.66667C7.53568 4.66667 4.39274 7.8096 4.39274 11.6866C4.39274 15.5636 7.53568 18.7066 11.4127 18.7066ZM11.4127 19.3732C12.0339 19.3732 12.6379 19.2995 13.2164 19.1604L13.0622 19.3146C12.8019 19.575 12.802 19.9971 13.0623 20.2574C13.3227 20.5177 13.7448 20.5177 14.0051 20.2573L20.3061 13.9553L26.6082 20.2574C26.8686 20.5177 27.2907 20.5177 27.551 20.2574C27.8114 19.997 27.8114 19.5749 27.551 19.3145L25.6006 17.3641V14.3709C25.6006 14.0027 25.3021 13.7043 24.9339 13.7043C24.5657 13.7043 24.2673 14.0027 24.2673 14.3709V16.0308L20.7795 12.5431C20.5352 12.2987 20.1484 12.2837 19.8865 12.498C19.8624 12.5163 19.8393 12.5364 19.8174 12.5583L18.8868 13.4891C19.0257 12.9109 19.0993 12.3074 19.0993 11.6866C19.0993 7.44141 15.6579 4 11.4127 4C7.16749 4 3.72607 7.44141 3.72607 11.6866C3.72607 15.9318 7.16749 19.3732 11.4127 19.3732ZM26.7455 21.4792C26.7455 21.111 26.4471 20.8125 26.0789 20.8125C25.7107 20.8125 25.4122 21.111 25.4122 21.4792V26.6666H25.2773H15.2007L15.2007 21.4792C15.2007 21.111 14.9022 20.8125 14.534 20.8125C14.1659 20.8125 13.8674 21.111 13.8674 21.4792L13.8674 27.3333C13.8673 27.6319 14.0636 27.8846 14.3342 27.9695V27.9999H14.5271L14.534 28L14.541 27.9999H15.0009H25.2773H25.944V27.9863C25.9876 27.9953 26.0327 28 26.0789 28C26.4471 28 26.7455 27.7015 26.7455 27.3333V21.4792ZM21.6787 20.8637C21.6787 20.1753 21.0644 19.6173 20.3067 19.6173C19.5489 19.6173 18.9346 20.1753 18.9346 20.8637V24.0587C18.9346 24.747 19.5489 25.305 20.3067 25.305C21.0644 25.305 21.6787 24.747 21.6787 24.0587V20.8637ZM7.28981 10.3503C6.66709 10.3503 6.16227 10.9486 6.16227 11.6867C6.16227 12.4247 6.66709 13.0231 7.28981 13.0231H15.5355C16.1583 13.0231 16.6631 12.4247 16.6631 11.6867C16.6631 10.9486 16.1583 10.3503 15.5355 10.3503H7.28981Z" fill="#EDEFF0"/>
</svg>
