<svg width="1280" height="1280" viewBox="0 0 1280 1280" fill="none" xmlns="http://www.w3.org/2000/svg">
<g clip-path="url(#clip0_207_69548)">
<circle cx="640" cy="640" r="640" fill="white"/>
<path fill-rule="evenodd" clip-rule="evenodd" d="M640 1134C912.829 1134 1134 912.829 1134 640C1134 367.171 912.829 146 640 146C367.171 146 146 367.171 146 640C146 912.829 367.171 1134 640 1134ZM640 1280C993.462 1280 1280 993.462 1280 640C1280 286.538 993.462 0 640 0C286.538 0 0 286.538 0 640C0 993.462 286.538 1280 640 1280Z" fill="#00C8EA"/>
<path d="M442 778L458.165 827.751H510.476L468.156 858.498L484.321 908.249L442 877.502L399.679 908.249L415.844 858.498L373.524 827.751H425.835L442 778Z" fill="#01C9EB"/>
<path d="M640 778L656.165 827.751H708.476L666.156 858.498L682.321 908.249L640 877.502L597.679 908.249L613.844 858.498L571.524 827.751H623.835L640 778Z" fill="#01C9EB"/>
<path d="M838 778L854.165 827.751H906.476L864.156 858.498L880.321 908.249L838 877.502L795.679 908.249L811.844 858.498L769.524 827.751H821.835L838 778Z" fill="#01C9EB"/>
<path d="M410.641 575.054V700.778H439.726H468.812V649.175V597.572H526.044H583.277V649.175V700.778H612.362H641.448V575.054V449.33H612.362H583.277V498.744V548.158H526.044H468.812V498.744V449.33H439.726H410.641V575.054Z" fill="black"/>
<path d="M654.583 575.054V700.778H683.356H712.128L712.253 624.656L712.441 548.596L774.678 624.531L836.914 700.466L861.183 700.653L885.39 700.778V575.054V449.33H856.617H827.845L827.72 525.452L827.532 601.512L765.295 525.452L703.059 449.392H678.852L654.583 449.33V575.054Z" fill="black"/>
<path d="M897.9 575.054V700.778H989.848H1081.8V677.01V653.241H1018.93H956.071V551.285V449.33H926.986H897.9V575.054Z" fill="black"/>
<path d="M288.544 505.061C272.407 506.625 254.393 512.63 242.133 520.511C227.809 529.768 215.862 542.966 208.419 557.853C196.785 581.246 194.72 611.27 203.102 636.54C213.548 668.19 240.757 691.834 276.16 700.09C289.733 703.28 312.251 704.281 326.95 702.342C349.905 699.34 369.108 690.645 383.619 676.822C385.746 674.758 387.497 672.819 387.497 672.568C387.497 672.256 380.867 664.812 372.736 656.055L358.037 640.105L354.471 643.108C349.467 647.424 345.652 649.863 339.772 652.615C319.882 661.935 291.046 660.434 274.283 649.363C265.151 643.295 256.582 631.411 254.58 622.091L254.142 620.09H327.075C379.491 620.09 400.07 619.902 400.383 619.402C401.196 618.025 401.446 597.322 400.695 590.691C397.943 566.61 389.687 549.034 373.799 533.083C366.231 525.515 358.662 520.011 350.03 515.632C332.141 506.688 310.374 502.935 288.544 505.061ZM312.313 547.908C322.008 549.909 329.764 554.225 336.332 561.231C342.462 567.798 346.653 575.992 348.279 584.874L348.717 586.938H301.054H253.454L253.892 584.311C256.206 569.8 267.465 556.039 281.601 550.347C289.983 546.969 302.868 545.969 312.313 547.908Z" fill="black"/>
</g>
<defs>
<clipPath id="clip0_207_69548">
<rect width="1280" height="1280" fill="white"/>
</clipPath>
</defs>
</svg>
