<svg width="1280" height="1280" viewBox="0 0 1280 1280" fill="none" xmlns="http://www.w3.org/2000/svg">
<g clip-path="url(#clip0_207_69508)">
<circle cx="640" cy="640" r="640" fill="white"/>
<path fill-rule="evenodd" clip-rule="evenodd" d="M640 1134C912.829 1134 1134 912.829 1134 640C1134 367.171 912.829 146 640 146C367.171 146 146 367.171 146 640C146 912.829 367.171 1134 640 1134ZM640 1280C993.462 1280 1280 993.462 1280 640C1280 286.538 993.462 0 640 0C286.538 0 0 286.538 0 640C0 993.462 286.538 1280 640 1280Z" fill="#00C8EA"/>
<path d="M912.395 446.239C910.999 446.438 906.511 447.136 902.422 447.735C885.469 450.128 868.117 456.81 855.053 466.084C839.097 477.353 829.125 494.805 826.432 515.846C824.039 534.495 829.524 553.542 840.693 565.709C854.455 580.767 870.311 587.748 916.384 599.117C953.282 608.291 962.556 612.081 967.941 620.358C970.335 623.948 970.734 625.544 970.734 631.627C970.734 637.81 970.335 639.306 967.941 642.995C964.451 648.181 957.869 652.469 948.794 655.361C942.611 657.256 939.62 657.555 923.364 657.555C909.104 657.555 902.921 657.156 895.94 655.66C879.585 652.27 858.843 644.192 847.275 636.812C844.083 634.718 841.191 633.123 840.693 633.123C840.094 633.123 824.039 667.029 820.848 675.107C820.05 677.001 838.698 687.373 852.061 692.459C874.1 700.736 896.04 704.326 923.364 704.326C945.503 704.326 958.069 702.631 972.828 697.644C1013.32 683.783 1035.16 649.777 1027.48 612.38C1025.08 600.612 1020.9 593.033 1011.62 583.659C1005.04 577.077 1001.85 574.684 993.371 570.396C980.108 563.615 961.958 557.731 936.329 551.847C911.098 546.063 902.422 543.37 895.541 539.182C887.464 534.296 884.173 529.708 883.674 522.528C882.278 503.082 898.732 492.311 929.847 492.311C950.689 492.212 972.13 497.298 991.576 506.871L1000.05 510.96L1009.03 489.619C1014.01 477.851 1017.8 467.879 1017.5 467.38C1016.81 466.283 1004.74 460.2 997.958 457.508C978.911 450.028 960.362 446.638 934.833 446.139C923.863 445.94 913.791 445.94 912.395 446.239Z" fill="black"/>
<path d="M417.262 450.826C416.963 451.524 416.863 507.968 416.963 576.28L417.262 700.437L508.809 700.736L600.257 700.935V677.001V653.068H537.929H475.601V551.348V449.629H446.681C424.442 449.629 417.561 449.928 417.262 450.826Z" fill="black"/>
<path d="M606.24 575.282V700.935H635.16H664.08V666.032V631.128H696.291C732.392 631.128 743.062 630.031 759.317 625.045C803.994 611.283 828.127 574.784 822.643 529.01C817.357 484.333 785.146 456.311 732.691 450.627C727.106 450.028 698.485 449.629 664.579 449.629H606.24V575.282ZM730.198 498.893C745.256 502.284 756.126 510.262 761.412 521.73C764.104 527.514 764.304 528.711 764.304 540.379C764.304 551.249 764.004 553.443 762.01 557.831C756.525 569.897 748.846 576.579 735.483 580.967C727.505 583.559 726.807 583.659 695.793 584.058L664.08 584.457V541.177C664.08 517.342 664.38 497.497 664.878 497.098C666.175 495.602 722.718 497.198 730.198 498.893Z" fill="black"/>
<path d="M299.088 505.475C254.013 510.062 220.705 538.584 211.131 580.568C208.538 592.136 208.239 613.876 210.632 625.244C217.713 659.45 243.542 687.074 278.844 697.944C289.614 701.235 302.579 702.93 318.036 702.93C350.646 702.93 373.483 695.052 392.829 677.301L398.015 672.514L389.239 663.04C384.453 657.854 377.671 650.475 374.081 646.685L367.699 639.904L364.607 642.896C352.74 654.364 330.9 660.547 311.155 658.154C288.119 655.361 273.359 644.691 266.379 625.943L264.185 620.158L337.283 619.959L410.281 619.66L410.58 605.3C410.88 589.244 409.384 578.972 405.195 567.005C397.915 546.462 382.757 528.711 363.311 517.841C345.859 508.068 321.028 503.281 299.088 505.475ZM323.222 548.456C331.2 550.152 341.371 555.836 346.657 561.72C351.543 567.205 356.23 576.08 357.826 582.961L358.724 587.249H311.354H263.885L264.484 583.46C265.581 577.177 271.863 565.709 277.348 560.324C282.933 554.839 292.107 549.853 299.088 548.456C305.57 547.16 317.138 547.16 323.222 548.456Z" fill="black"/>
<path d="M442 778L458.165 827.751H510.476L468.156 858.498L484.321 908.249L442 877.502L399.679 908.249L415.844 858.498L373.524 827.751H425.835L442 778Z" fill="#01C9EB"/>
<path d="M640 778L656.165 827.751H708.476L666.156 858.498L682.321 908.249L640 877.502L597.679 908.249L613.844 858.498L571.524 827.751H623.835L640 778Z" fill="#01C9EB"/>
<path d="M838 778L854.165 827.751H906.476L864.156 858.498L880.321 908.249L838 877.502L795.679 908.249L811.844 858.498L769.524 827.751H821.835L838 778Z" fill="#01C9EB"/>
</g>
<defs>
<clipPath id="clip0_207_69508">
<rect width="1280" height="1280" fill="white"/>
</clipPath>
</defs>
</svg>
