<svg width="600" height="600" viewBox="0 0 600 600" fill="none" xmlns="http://www.w3.org/2000/svg">
<g clip-path="url(#clip0_410_71394)">
<path d="M300 0C178.662 0 69.27 73.0931 22.8384 185.193C-23.5931 297.293 2.08 426.322 87.8789 512.121C173.678 597.92 302.707 623.593 414.807 577.162C526.907 530.73 600 421.339 600 300C600 134.315 465.686 0 300 0Z" fill="url(#paint0_linear_410_71394)"/>
<path d="M340.108 233.953L265.788 276.75C264.845 277.291 264.064 278.074 263.524 279.017C262.985 279.961 262.706 281.031 262.717 282.117V318.024C262.707 319.085 262.988 320.129 263.53 321.042C264.071 321.955 264.852 322.703 265.788 323.203L296.913 341.156C297.799 341.719 298.827 342.018 299.878 342.018C300.928 342.018 301.956 341.719 302.842 341.156L431.28 267.188C453.077 254.578 453.077 218.25 431.28 205.641L315.85 139.172C311.035 136.263 305.515 134.725 299.889 134.725C294.263 134.725 288.744 136.263 283.928 139.172L168.499 205.664C163.577 208.422 159.485 212.449 156.649 217.325C153.813 222.202 152.337 227.75 152.374 233.391C152.374 277.922 152.561 322.242 152.374 366.563C152.327 372.194 153.79 377.736 156.609 382.612C159.428 387.487 163.501 391.519 168.405 394.289L283.835 460.969C288.681 463.789 294.188 465.275 299.795 465.275C305.403 465.275 310.91 463.789 315.756 460.969L431.28 394.289C436.178 391.527 440.239 387.492 443.032 382.611C445.825 377.73 447.247 372.185 447.147 366.563V308.672L309.756 388.172C306.749 389.956 303.316 390.898 299.819 390.898C296.322 390.898 292.889 389.956 289.881 388.172L228.522 352.617C225.473 350.907 222.94 348.407 221.192 345.38C219.443 342.353 218.542 338.91 218.585 335.414V264.539C218.569 261.099 219.46 257.715 221.167 254.728C222.875 251.741 225.339 249.256 228.311 247.524C248.772 235.664 269.397 223.828 289.858 211.969C292.87 210.197 296.301 209.262 299.795 209.262C303.29 209.262 306.721 210.197 309.733 211.969L340.202 229.36C340.59 229.609 340.907 229.953 341.124 230.36C341.341 230.766 341.45 231.222 341.44 231.683C341.431 232.143 341.304 232.594 341.07 232.992C340.837 233.389 340.506 233.72 340.108 233.953Z" fill="white"/>
</g>
<defs>
<linearGradient id="paint0_linear_410_71394" x1="299.999" y1="0" x2="299.999" y2="600.003" gradientUnits="userSpaceOnUse">
<stop stop-color="#FF21D0"/>
<stop offset="1" stop-color="#CD0BC3"/>
</linearGradient>
<clipPath id="clip0_410_71394">
<rect width="600" height="600" fill="white"/>
</clipPath>
</defs>
</svg>
