<svg width="1280" height="1280" viewBox="0 0 1280 1280" fill="none" xmlns="http://www.w3.org/2000/svg">
<g clip-path="url(#clip0_207_69519)">
<circle cx="640" cy="640" r="640" fill="white"/>
<path fill-rule="evenodd" clip-rule="evenodd" d="M640 1134C912.829 1134 1134 912.829 1134 640C1134 367.171 912.829 146 640 146C367.171 146 146 367.171 146 640C146 912.829 367.171 1134 640 1134ZM640 1280C993.462 1280 1280 993.462 1280 640C1280 286.538 993.462 0 640 0C286.538 0 0 286.538 0 640C0 993.462 286.538 1280 640 1280Z" fill="#00C8EA"/>
<path d="M442 778L458.165 827.751H510.476L468.156 858.498L484.321 908.249L442 877.502L399.679 908.249L415.844 858.498L373.524 827.751H425.835L442 778Z" fill="#01C9EB"/>
<path d="M640 778L656.165 827.751H708.476L666.156 858.498L682.321 908.249L640 877.502L597.679 908.249L613.844 858.498L571.524 827.751H623.835L640 778Z" fill="#01C9EB"/>
<path d="M838 778L854.165 827.751H906.476L864.156 858.498L880.321 908.249L838 877.502L795.679 908.249L811.844 858.498L769.524 827.751H821.835L838 778Z" fill="#01C9EB"/>
<path d="M718.518 445.499C701.106 447.19 682.997 452.563 669.863 459.926C659.515 465.697 646.58 478.732 641.704 488.084C635.436 500.223 633.446 508.183 633.446 522.412C633.446 540.421 636.331 550.073 645.286 561.913C656.43 576.639 676.629 586.589 713.742 595.644C754.338 605.394 763.193 608.479 770.755 615.046C780.904 624.001 780.506 637.035 769.959 646.388C760.805 654.448 747.074 657.433 723.593 656.438C708.369 655.741 697.723 653.851 684.091 649.274C674.44 646.09 660.112 639.324 652.649 634.647L647.177 631.065L637.525 652.358C632.252 664.099 627.973 674.049 627.973 674.447C627.973 674.845 631.456 677.333 635.734 679.92C667.574 699.123 719.513 707.979 760.109 700.914C798.914 694.248 825.58 673.154 833.44 642.806C835.53 634.946 835.828 617.732 834.037 609.971C832.047 601.614 826.674 591.166 820.903 584.798C808.167 570.47 786.377 560.819 746.875 551.665C721.006 545.695 712.25 543.207 705.882 540.123C695.036 534.849 690.36 528.581 690.36 519.427C690.459 501.318 706.28 491.467 735.93 491.368C757.223 491.268 778.516 496.144 797.023 505.497C801.6 507.686 805.68 509.477 806.277 509.278C806.774 509.079 811.152 499.527 816.028 488.084C826.077 464.105 826.276 466.891 813.54 460.722C798.814 453.558 778.914 448.185 758.815 445.797C750.557 444.902 726.577 444.703 718.518 445.499Z" fill="black"/>
<path d="M225 574.152V699.521H316.54H408.079V675.641V651.761H345.892H283.705L283.506 550.471L283.207 449.28L254.153 448.981L225 448.782V574.152Z" fill="black"/>
<path d="M413.552 449.976C413.253 450.673 413.154 506.989 413.253 575.147L413.552 699.024L442.705 699.322L471.759 699.521V664.696V629.871H503.698C540.414 629.871 550.563 628.876 567.876 623.304C598.522 613.553 620.212 592.062 627.476 564.202C629.665 555.744 630.56 531.864 629.068 522.81C622.6 484.701 595.338 459.827 550.364 451.17C543.2 449.777 532.155 449.379 477.928 449.081C425.79 448.683 413.95 448.882 413.552 449.976ZM537.727 497.935C556.831 502.213 567.876 512.86 571.259 530.173C572.851 538.232 571.955 549.277 569.169 556.938C566.483 563.804 557.329 573.555 550.264 576.838C539.419 581.913 535.837 582.41 502.902 582.808L471.759 583.306V539.327V495.248L501.41 495.845C522.703 496.243 532.852 496.84 537.727 497.935Z" fill="black"/>
<path d="M931.447 504.104C885.876 507.586 852.146 533.257 840.504 573.356C835.629 590.171 835.231 611.762 839.509 628.777C848.166 663.303 875.926 689.074 914.532 698.626C925.378 701.213 953.138 702.307 965.376 700.616C988.062 697.332 1009.06 687.681 1021.79 674.348L1025.18 670.865L1010.85 655.542C1003.09 647.085 996.221 640.02 995.724 639.821C995.326 639.622 992.44 641.413 989.555 643.702C976.321 654.05 956.919 659.124 939.109 656.836C922.592 654.647 913.04 650.269 903.587 640.319C898.811 635.244 892.642 624.001 892.642 620.419C892.642 619.125 900.901 618.926 964.779 618.926C1032.64 618.926 1037.02 618.827 1037.71 617.135C1039.21 613.454 1038.21 588.778 1036.22 579.127C1028.06 540.919 999.007 512.959 960.103 506.094C951.048 504.502 938.412 503.606 931.447 504.104ZM950.551 547.386C968.162 551.068 982.092 565.296 985.475 582.808L986.172 586.092H938.81H891.448L892.145 582.41C894.334 570.868 904.582 557.038 915.129 551.764C925.278 546.59 938.91 544.899 950.551 547.386Z" fill="black"/>
</g>
<defs>
<clipPath id="clip0_207_69519">
<rect width="1280" height="1280" fill="white"/>
</clipPath>
</defs>
</svg>
