<svg width="1280" height="1280" viewBox="0 0 1280 1280" fill="none" xmlns="http://www.w3.org/2000/svg">
<circle cx="640" cy="640" r="640" fill="#E52F45"/>
<path fill-rule="evenodd" clip-rule="evenodd" d="M952.419 341.911C973.406 341.911 990.419 324.898 990.419 303.911C990.419 282.924 973.406 265.911 952.419 265.911C931.433 265.911 914.419 282.924 914.419 303.911C914.419 324.898 931.433 341.911 952.419 341.911ZM854.839 828.505V633.999C854.839 520.999 771.813 420.397 641.839 419.499C511.865 418.602 424.985 524.503 421.839 644.001C418.694 763.499 528.197 857.501 633.839 857.501C739.482 857.501 791.412 792.064 791.412 792.064V720.487C791.412 720.487 747.865 808.001 641.839 808.001C535.814 808.001 470.339 732.001 469.814 638.999C469.288 545.997 543.814 466.499 641.839 466.499C739.865 466.499 809.839 540.999 809.839 644.001V828.508C809.839 840.934 819.913 851.001 832.339 851.001C844.766 851.001 854.839 840.931 854.839 828.505ZM197.81 827V449.501C197.81 436.522 208.331 426.001 221.31 426.001C234.289 426.001 244.81 436.522 244.81 449.501V495.501C302.613 418.82 369.81 416.5 406.31 423C442.81 429.5 448.81 464.892 422.31 469.5C417.894 470.268 410.811 470.03 401.94 469.732H401.939C357.587 468.242 268.56 465.251 244.81 579V827C244.81 839.979 234.289 850.5 221.31 850.5C208.331 850.5 197.81 839.979 197.81 827ZM791.81 635.5C791.81 719.723 723.534 788 639.31 788C555.087 788 486.81 719.723 486.81 635.5C486.81 551.277 555.087 483 639.31 483C723.534 483 791.81 551.277 791.81 635.5ZM929.8 446.938C929.8 434.445 939.927 424.318 952.42 424.318C964.912 424.318 975.04 434.445 975.04 446.938V829.093C975.04 841.586 964.912 851.713 952.42 851.713C939.927 851.713 929.8 841.586 929.8 829.093V446.938ZM538.686 1101L538.689 1101C546.008 1088.62 549.646 1074.58 549.646 1058.92V916.522C549.646 911.618 545.67 907.642 540.766 907.642C535.861 907.642 531.885 911.618 531.885 916.522V1058.15C531.885 1070.82 528.989 1082.02 523.243 1091.81L523.238 1091.82C517.551 1101.63 509.667 1109.38 499.551 1115.08C489.469 1120.69 477.779 1123.52 464.421 1123.52C451.063 1123.52 439.373 1120.69 429.291 1115.08C419.175 1109.38 411.253 1101.63 405.492 1091.82C399.818 1082.03 396.958 1070.82 396.958 1058.15V916.522C396.958 911.618 392.982 907.642 388.077 907.642C383.173 907.642 379.197 911.618 379.197 916.522V1058.91C379.123 1074.5 382.725 1088.51 390.044 1100.89L390.048 1100.9C397.426 1113.24 407.557 1122.99 420.407 1130.13L420.415 1130.13C433.295 1137.21 447.982 1140.73 464.421 1140.73C480.932 1140.73 495.621 1137.22 508.432 1130.13L508.436 1130.13C521.284 1122.99 531.381 1113.28 538.686 1101ZM689.505 933.514L689.511 933.518C697.867 940.562 703.068 949.418 705.154 960.154C705.988 964.452 709.621 968.005 714.267 968.005C719.28 968.005 723.56 963.727 722.698 958.481C721.234 949.574 718.054 941.465 713.155 934.176C706.934 924.846 698.518 917.541 687.955 912.258C677.358 906.886 665.189 904.229 651.499 904.229C637.88 904.229 625.578 906.85 614.632 912.134L614.627 912.136C603.771 917.413 595.128 924.716 588.753 934.05C582.344 943.359 579.155 954.034 579.155 966.005C579.155 980.301 583.967 992.342 593.611 1001.99L593.617 1001.99C603.243 1011.54 617.038 1018.98 634.845 1024.39L634.85 1024.39L661.16 1032.32L661.164 1032.32C671.855 1035.52 680.734 1039.14 687.833 1043.15L687.841 1043.16C694.968 1047.15 700.244 1051.83 703.773 1057.16C707.265 1062.43 709.055 1068.82 709.055 1076.42C709.055 1085.88 706.557 1094.09 701.603 1101.14C696.623 1108.23 689.692 1113.81 680.734 1117.86C671.789 1121.83 661.398 1123.85 649.518 1123.85C638.506 1123.85 628.796 1122.05 620.349 1118.5C611.901 1114.95 605.182 1109.94 600.131 1103.49C596.355 1098.54 593.809 1092.9 592.497 1086.54C591.592 1082.16 587.89 1078.49 583.11 1078.49C577.935 1078.49 573.518 1082.95 574.528 1088.37C576.15 1097.06 579.467 1104.96 584.476 1112.03L584.481 1112.04C590.941 1121.08 599.704 1128.12 610.704 1133.17L610.709 1133.17C621.809 1138.23 634.763 1140.73 649.518 1140.73C665.014 1140.73 678.568 1138.01 690.12 1132.5L690.125 1132.5C701.715 1126.93 710.709 1119.28 717.024 1109.55C723.413 1099.81 726.596 1088.78 726.596 1076.53C726.596 1068.14 725.046 1060.64 721.888 1054.09C718.832 1047.6 714.516 1041.95 708.96 1037.16C703.519 1032.32 697.12 1028.19 689.781 1024.74C682.565 1021.32 674.694 1018.32 666.172 1015.72L666.164 1015.72L641.508 1008.45L641.503 1008.45C634.766 1006.42 628.627 1004.08 623.083 1001.41C617.574 998.765 612.853 995.707 608.899 992.248C604.977 988.744 601.952 984.809 599.801 980.441C597.743 976.044 596.695 971.097 596.695 965.565C596.695 956.919 599.007 949.323 603.603 942.708C608.226 936.053 614.62 930.765 622.853 926.861C631.059 922.97 640.483 920.999 651.169 920.999C667.019 920.999 679.738 925.222 689.505 933.514ZM910.083 1083.69L910.085 1083.68C918.541 1066.4 922.764 1045.68 922.838 1021.6C922.912 998.041 918.875 977.728 910.64 960.734C902.481 943.67 890.698 930.52 875.295 921.354C859.882 912.181 841.422 907.642 820 907.642H758.628C754.209 907.642 750.628 911.224 750.628 915.642V1129.1C750.628 1133.51 754.209 1137.1 758.628 1137.1H815.156C837.806 1137.1 857.21 1132.57 873.281 1123.4L873.287 1123.4C889.351 1114.17 901.622 1100.91 910.083 1083.69ZM894.921 1074.79L894.918 1074.8C888.039 1089.49 877.891 1100.74 864.461 1108.6C851.039 1116.38 834.453 1120.33 814.606 1120.33H768.388V924.412H819.449C838.031 924.412 853.576 928.315 866.185 936.008L866.189 936.011C878.888 943.716 888.573 954.775 895.243 969.264L895.244 969.267C901.919 983.694 905.298 1001.12 905.298 1021.6V1021.61C905.37 1042.37 901.884 1060.08 894.921 1074.79Z" fill="white"/>
</svg>
