<svg width="343" height="188" viewBox="0 0 343 188" fill="none" xmlns="http://www.w3.org/2000/svg">
<g clip-path="url(#clip0_3790_95604)">
<path d="M0 16C0 7.16344 7.16344 0 16 0H327C335.837 0 343 7.16344 343 16V172C343 180.837 335.837 188 327 188H16C7.16345 188 0 180.837 0 172V16Z" fill="#001E2E"/>
<path d="M0 16C0 7.16344 7.16344 0 16 0H327C335.837 0 343 7.16344 343 16V172C343 180.837 335.837 188 327 188H16C7.16345 188 0 180.837 0 172V16Z" fill="#7ED0FF" fill-opacity="0.11"/>
<g opacity="0.1" filter="url(#filter0_f_3790_95604)">
<mask id="mask0_3790_95604" style="mask-type:alpha" maskUnits="userSpaceOnUse" x="-83" y="-177" width="812" height="800">
<path d="M323 623C547.228 623 729 443.914 729 223C729 2.08611 547.228 -177 323 -177C98.7724 -177 -83 2.08611 -83 223C-83 443.914 98.7724 623 323 623Z" fill="white"/>
</mask>
<g mask="url(#mask0_3790_95604)">
<path d="M323 623C547.228 623 729 443.914 729 223C729 2.08609 547.228 -177 323 -177C98.7724 -177 -83 2.08609 -83 223C-83 443.914 98.7724 623 323 623Z" fill="#2FCF6E"/>
</g>
<path fill-rule="evenodd" clip-rule="evenodd" d="M380.344 132.436C394.439 175.039 322.045 194.824 299.237 202.53L274.54 126.703C296.899 119.273 365.639 87.9111 380.344 132.436ZM437.615 244.098C453.195 290.966 366.307 315.078 339.432 324.133L311.857 240.86C339.171 231.535 421.169 194.881 437.615 244.098ZM331.26 58.9389L310.822 -3.37304L270.862 10.2838L290.961 71.0777C280.351 74.7277 269.741 78.3776 259.397 82.4477L239.291 21.6445L198.892 35.5715L219.337 97.8928C210.752 100.867 202.444 104.255 193.86 107.229L138.789 126.164L152.008 166.423C152.008 166.423 181.541 155.72 180.92 156.687C197.185 151.282 205.357 158.35 209.122 165.25L232.526 236.108C233.671 235.988 235.007 235.165 236.855 235.17C235.268 235.576 234.38 236.123 232.793 236.528L265.935 335.38C266.799 340.612 266.048 349.136 255.005 353.066C255.704 353.206 225.649 363.063 225.649 363.063L232.741 411.132L284.638 393.009C294.37 389.899 303.826 386.376 313.11 383.542L333.815 446.274L373.775 432.618L353.337 370.306C364.646 366.796 375.257 363.146 385.428 359.767L405.606 421.668L445.566 408.011L424.867 345.288C490.927 318.445 532.734 286.359 518.566 224.225C507.418 174.615 476.764 161.226 435.175 165.513C455.477 146.095 463.363 121.663 449.392 89.9274C429.915 46.6012 384.46 45.7775 331.26 58.9389Z" fill="white"/>
</g>
</g>
<defs>
<filter id="filter0_f_3790_95604" x="-99" y="-193" width="844" height="832" filterUnits="userSpaceOnUse" color-interpolation-filters="sRGB">
<feFlood flood-opacity="0" result="BackgroundImageFix"/>
<feBlend mode="normal" in="SourceGraphic" in2="BackgroundImageFix" result="shape"/>
<feGaussianBlur stdDeviation="8" result="effect1_foregroundBlur_3790_95604"/>
</filter>
<clipPath id="clip0_3790_95604">
<path d="M0 16C0 7.16344 7.16344 0 16 0H327C335.837 0 343 7.16344 343 16V172C343 180.837 335.837 188 327 188H16C7.16345 188 0 180.837 0 172V16Z" fill="white"/>
</clipPath>
</defs>
</svg>
