<svg width="343" height="200" viewBox="0 0 343 200" fill="none" xmlns="http://www.w3.org/2000/svg">
<g clip-path="url(#clip0_3827_99398)">
<path d="M0 16C0 7.16344 7.16344 0 16 0H327C335.837 0 343 7.16344 343 16V184C343 192.837 335.837 200 327 200H16C7.16345 200 0 192.837 0 184V16Z" fill="url(#paint0_linear_3827_99398)"/>
<g opacity="0.12">
<circle cx="262" cy="88" r="300" fill="white"/>
<path d="M552.991 160.571C512.923 321.287 350.144 419.096 189.409 379.018C28.7419 338.951 -69.0666 176.162 -28.9818 15.4592C11.0677 -145.274 173.847 -243.09 334.532 -203.023C495.255 -162.956 593.058 -0.14888 552.986 160.574L552.989 160.571H552.991Z" fill="#F7931A"/>
<path d="M394.287 45.2574C400.258 5.33392 369.863 -16.1264 328.3 -30.4426L341.783 -84.5224L308.863 -92.7253L295.738 -40.0694C287.083 -42.2279 278.195 -44.2617 269.362 -46.278L282.583 -99.2815L249.683 -107.484L236.193 -53.4221C229.031 -55.0528 221.997 -56.6643 215.172 -58.3624L215.21 -58.5325L169.813 -69.869L161.056 -34.7083C161.056 -34.7083 185.48 -29.1097 184.965 -28.7651C198.296 -25.4379 200.706 -16.6133 200.306 -9.61868L184.947 51.991C185.865 52.2241 187.056 52.5614 188.37 53.0893C187.271 52.8165 186.103 52.5189 184.89 52.2285L163.362 138.535C161.733 142.585 157.598 148.663 148.278 146.355C148.608 146.833 124.351 140.384 124.351 140.384L108.007 178.067L150.847 188.746C158.817 190.745 166.626 192.836 174.318 194.802L160.695 249.503L193.577 257.705L207.068 203.586C216.051 206.025 224.768 208.274 233.302 210.394L219.857 264.259L252.779 272.462L266.4 217.864C322.536 228.488 364.745 224.205 382.512 173.43C396.828 132.551 381.799 108.971 352.266 93.5949C373.776 88.6341 389.978 74.4866 394.298 45.2618L394.288 45.2544L394.287 45.2574ZM319.072 150.728C308.898 191.607 240.07 169.509 217.754 163.968L235.832 91.4994C258.146 97.0702 329.705 108.094 319.073 150.728H319.072ZM329.253 44.665C319.972 81.8492 262.686 62.958 244.102 58.3257L260.492 -7.39858C279.075 -2.76631 338.921 5.87941 329.256 44.665H329.253Z" fill="white"/>
</g>
</g>
<defs>
<linearGradient id="paint0_linear_3827_99398" x1="19" y1="29.0698" x2="342.078" y2="148.275" gradientUnits="userSpaceOnUse">
<stop stop-color="#9C5E12"/>
<stop offset="1" stop-color="#DB8217"/>
</linearGradient>
<clipPath id="clip0_3827_99398">
<path d="M0 16C0 7.16344 7.16344 0 16 0H327C335.837 0 343 7.16344 343 16V184C343 192.837 335.837 200 327 200H16C7.16345 200 0 192.837 0 184V16Z" fill="white"/>
</clipPath>
</defs>
</svg>
