<svg width="1280" height="1280" viewBox="0 0 1280 1280" fill="none" xmlns="http://www.w3.org/2000/svg">
<path fill-rule="evenodd" clip-rule="evenodd" d="M640 1280C993.462 1280 1280 993.462 1280 640C1280 286.538 993.462 0 640 0C286.538 0 0 286.538 0 640C0 993.462 286.538 1280 640 1280ZM952.609 341.911C973.596 341.911 990.609 324.898 990.609 303.911C990.609 282.924 973.596 265.911 952.609 265.911C931.623 265.911 914.609 282.924 914.609 303.911C914.609 324.898 931.623 341.911 952.609 341.911ZM855.029 828.505V633.999C855.029 520.999 772.003 420.397 642.029 419.499C512.055 418.602 425.174 524.503 422.029 644.001C418.884 763.499 528.387 857.501 634.029 857.501C739.672 857.501 791.602 792.064 791.602 792.064V720.487C791.602 720.487 748.055 808.001 642.029 808.001C536.004 808.001 470.529 732.001 470.004 638.999C469.478 545.997 544.004 466.499 642.029 466.499C740.055 466.499 810.029 540.999 810.029 644.001V828.508C810.029 840.934 820.103 851.001 832.529 851.001C844.955 851.001 855.029 840.931 855.029 828.505ZM198 827V449.501C198 436.522 208.521 426.001 221.5 426.001C234.479 426.001 245 436.522 245 449.501V495.501C302.803 418.82 370 416.5 406.5 423C443 429.5 449 464.892 422.5 469.5C418.083 470.268 411 470.03 402.13 469.732H402.129C357.777 468.242 268.75 465.251 245 579V827C245 839.979 234.479 850.5 221.5 850.5C208.521 850.5 198 839.979 198 827ZM792 635.5C792 719.723 723.723 788 639.5 788C555.277 788 487 719.723 487 635.5C487 551.277 555.277 483 639.5 483C723.723 483 792 551.277 792 635.5ZM929.99 446.938C929.99 434.445 940.117 424.318 952.61 424.318C965.102 424.318 975.229 434.445 975.229 446.938V829.093C975.229 841.586 965.102 851.713 952.61 851.713C940.117 851.713 929.99 841.586 929.99 829.093V446.938ZM538.876 1101L538.879 1101C546.198 1088.62 549.836 1074.58 549.836 1058.92V916.522C549.836 911.618 545.86 907.642 540.955 907.642C536.051 907.642 532.075 911.618 532.075 916.522V1058.15C532.075 1070.82 529.179 1082.02 523.433 1091.81L523.428 1091.82C517.74 1101.63 509.857 1109.38 499.741 1115.08C489.659 1120.69 477.969 1123.52 464.611 1123.52C451.253 1123.52 439.563 1120.69 429.481 1115.08C419.365 1109.38 411.443 1101.63 405.682 1091.82C400.008 1082.03 397.148 1070.82 397.148 1058.15V916.522C397.148 911.618 393.172 907.642 388.267 907.642C383.363 907.642 379.387 911.618 379.387 916.522V1058.91C379.313 1074.5 382.915 1088.51 390.234 1100.89L390.238 1100.9C397.616 1113.24 407.747 1122.99 420.597 1130.13L420.605 1130.13C433.485 1137.21 448.172 1140.73 464.611 1140.73C481.122 1140.73 495.811 1137.22 508.622 1130.13L508.626 1130.13C521.474 1122.99 531.571 1113.28 538.876 1101ZM689.695 933.514L689.701 933.518C698.057 940.562 703.258 949.418 705.343 960.154C706.178 964.452 709.811 968.005 714.457 968.005C719.47 968.005 723.75 963.727 722.888 958.481C721.424 949.574 718.244 941.465 713.345 934.176C707.124 924.846 698.708 917.541 688.145 912.258C677.548 906.886 665.379 904.229 651.689 904.229C638.07 904.229 625.768 906.85 614.822 912.134L614.817 912.136C603.961 917.413 595.318 924.716 588.943 934.05C582.534 943.359 579.345 954.034 579.345 966.005C579.345 980.301 584.156 992.342 593.801 1001.99L593.807 1001.99C603.433 1011.54 617.227 1018.98 635.035 1024.39L635.04 1024.39L661.35 1032.32L661.353 1032.32C672.045 1035.52 680.924 1039.14 688.023 1043.15L688.031 1043.16C695.158 1047.15 700.434 1051.83 703.963 1057.16C707.455 1062.43 709.245 1068.82 709.245 1076.42C709.245 1085.88 706.746 1094.09 701.793 1101.14C696.813 1108.23 689.882 1113.81 680.924 1117.86C671.979 1121.83 661.588 1123.85 649.708 1123.85C638.696 1123.85 628.986 1122.05 620.539 1118.5C612.091 1114.95 605.372 1109.94 600.321 1103.49C596.545 1098.54 593.999 1092.9 592.687 1086.54C591.782 1082.16 588.08 1078.49 583.3 1078.49C578.125 1078.49 573.708 1082.95 574.717 1088.37C576.34 1097.06 579.657 1104.96 584.666 1112.03L584.671 1112.04C591.131 1121.08 599.894 1128.12 610.894 1133.17L610.899 1133.17C621.999 1138.23 634.953 1140.73 649.708 1140.73C665.204 1140.73 678.758 1138.01 690.31 1132.5L690.314 1132.5C701.905 1126.93 710.899 1119.28 717.214 1109.55C723.603 1099.81 726.786 1088.78 726.786 1076.53C726.786 1068.14 725.236 1060.64 722.078 1054.09C719.022 1047.6 714.706 1041.95 709.15 1037.16C703.709 1032.32 697.31 1028.19 689.971 1024.74C682.755 1021.32 674.884 1018.32 666.362 1015.72L666.354 1015.72L641.697 1008.45L641.693 1008.45C634.956 1006.42 628.817 1004.08 623.273 1001.41C617.764 998.765 613.043 995.707 609.089 992.248C605.167 988.744 602.142 984.809 599.99 980.441C597.933 976.044 596.885 971.097 596.885 965.565C596.885 956.919 599.197 949.323 603.793 942.708C608.416 936.053 614.81 930.765 623.043 926.861C631.249 922.97 640.673 920.999 651.359 920.999C667.209 920.999 679.928 925.222 689.695 933.514ZM910.273 1083.69L910.275 1083.68C918.731 1066.4 922.954 1045.68 923.028 1021.6C923.102 998.041 919.065 977.728 910.83 960.734C902.671 943.67 890.888 930.52 875.485 921.354C860.072 912.181 841.612 907.642 820.19 907.642H758.818C754.399 907.642 750.818 911.224 750.818 915.642V1129.1C750.818 1133.51 754.399 1137.1 758.818 1137.1H815.346C837.996 1137.1 857.4 1132.57 873.471 1123.4L873.477 1123.4C889.541 1114.17 901.812 1100.91 910.273 1083.69ZM895.111 1074.79L895.108 1074.8C888.228 1089.49 878.081 1100.74 864.651 1108.6C851.229 1116.38 834.643 1120.33 814.796 1120.33H768.578V924.412H819.639C838.221 924.412 853.766 928.315 866.375 936.008L866.379 936.011C879.078 943.716 888.762 954.775 895.433 969.264L895.434 969.267C902.109 983.694 905.487 1001.12 905.487 1021.6V1021.61C905.56 1042.37 902.074 1060.08 895.111 1074.79Z" fill="#E52F45"/>
</svg>
