<svg width="24" height="24" viewBox="0 0 24 24" fill="none" xmlns="http://www.w3.org/2000/svg">
<path fill-rule="evenodd" clip-rule="evenodd" d="M18.5056 8.71118L12.8921 3L5.13924 5.00591L3 12.723L8.61357 18.4342L16.3664 16.4283L18.5056 8.71118ZM6.7581 6.65291L11.8918 5.32467L10.5243 10.2578L5.41614 11.4939L6.7581 6.65291ZM5.26329 12.0453L5.23578 12.1445L9.23049 16.2087L14.6604 14.8038L10.7696 10.7217L10.7527 10.717L5.26329 12.0453ZM16.2698 9.28965L14.8787 14.3082L11.0894 10.3325L10.9984 10.4192L12.4023 5.35482L16.2698 9.28965ZM20.7461 14.8396C20.9904 14.9683 21.0841 15.2708 20.9553 15.5151L18.2278 20.6913C18.099 20.9356 17.7966 21.0293 17.5523 20.9005C17.4982 20.872 17.4514 20.835 17.4129 20.7919C17.3414 20.7612 17.276 20.7134 17.2233 20.649L15.9082 19.041C15.7333 18.8273 15.7649 18.5123 15.9786 18.3375C16.1924 18.1626 16.5074 18.1942 16.6822 18.4079L17.6665 19.6113L20.0707 15.0489C20.1994 14.8046 20.5018 14.7109 20.7461 14.8396Z" fill="#00344B"/>
</svg>
