<svg width="343" height="188" viewBox="0 0 343 188" fill="none" xmlns="http://www.w3.org/2000/svg">
<g opacity="0.36">
<g clip-path="url(#clip0_3790_96311)">
<path d="M0 16C0 7.16344 7.16344 0 16 0H327C335.837 0 343 7.16344 343 16V172C343 180.837 335.837 188 327 188H16C7.16345 188 0 180.837 0 172V16Z" fill="#001E2E"/>
<path d="M0 16C0 7.16344 7.16344 0 16 0H327C335.837 0 343 7.16344 343 16V172C343 180.837 335.837 188 327 188H16C7.16345 188 0 180.837 0 172V16Z" fill="#7ED0FF" fill-opacity="0.11"/>
<g opacity="0.5" filter="url(#filter0_f_3790_96311)">
<circle cx="262" cy="88" r="300" fill="white"/>
<g clip-path="url(#clip1_3790_96311)">
<path d="M562.001 87.9983C562.001 253.685 427.689 388 262.004 388C96.3173 388 -37.9966 253.685 -37.9966 87.9983C-37.9966 -77.6862 96.3173 -212 262.004 -212C427.687 -212 562.001 -77.6862 562.001 87.9983Z" fill="#BEBEBE"/>
<path d="M498.309 88.0013C498.309 218.501 392.512 324.307 262.005 324.307C131.499 324.307 25.6946 218.501 25.6946 88.0013C25.6946 -42.5092 131.499 -148.308 262.005 -148.308C392.514 -148.308 498.309 -42.511 498.309 88.0013Z" fill="#BEBEBE"/>
<path d="M244.469 168.14L263.955 94.7675L310.088 77.9132L321.563 34.7923L321.171 33.7226L275.76 50.3128L308.479 -72.8887H215.686L172.897 87.892L137.171 100.943L125.366 145.398L161.065 132.358L135.846 227.113H382.804L398.636 168.14H244.469Z" fill="white"/>
</g>
</g>
</g>
</g>
<defs>
<filter id="filter0_f_3790_96311" x="-52" y="-226" width="628" height="628" filterUnits="userSpaceOnUse" color-interpolation-filters="sRGB">
<feFlood flood-opacity="0" result="BackgroundImageFix"/>
<feBlend mode="normal" in="SourceGraphic" in2="BackgroundImageFix" result="shape"/>
<feGaussianBlur stdDeviation="7" result="effect1_foregroundBlur_3790_96311"/>
</filter>
<clipPath id="clip0_3790_96311">
<path d="M0 16C0 7.16344 7.16344 0 16 0H327C335.837 0 343 7.16344 343 16V172C343 180.837 335.837 188 327 188H16C7.16345 188 0 180.837 0 172V16Z" fill="white"/>
</clipPath>
<clipPath id="clip1_3790_96311">
<rect width="600" height="600" fill="white" transform="translate(-38 -212)"/>
</clipPath>
</defs>
</svg>
